<svg width="48" height="48" viewBox="0 0 48 48" fill="none" xmlns="http://www.w3.org/2000/svg">
<rect width="48" height="48" rx="8" fill="#00CAE5"/>
<g clip-path="url(#clip0_2854_7733)">
<path d="M29.8333 15.6667H29V14.8333C29 14.6123 28.9122 14.4004 28.7559 14.2441C28.5996 14.0878 28.3877 14 28.1667 14C27.9457 14 27.7337 14.0878 27.5774 14.2441C27.4211 14.4004 27.3333 14.6123 27.3333 14.8333V15.6667H20.6667V14.8333C20.6667 14.6123 20.5789 14.4004 20.4226 14.2441C20.2663 14.0878 20.0543 14 19.8333 14C19.6123 14 19.4004 14.0878 19.2441 14.2441C19.0878 14.4004 19 14.6123 19 14.8333V15.6667H18.1667C17.062 15.668 16.003 16.1074 15.2218 16.8885C14.4407 17.6696 14.0013 18.7287 14 19.8333L14 29.8333C14.0013 30.938 14.4407 31.997 15.2218 32.7782C16.003 33.5593 17.062 33.9987 18.1667 34H29.8333C30.938 33.9987 31.997 33.5593 32.7782 32.7782C33.5593 31.997 33.9987 30.938 34 29.8333V19.8333C33.9987 18.7287 33.5593 17.6696 32.7782 16.8885C31.997 16.1074 30.938 15.668 29.8333 15.6667ZM15.6667 19.8333C15.6667 19.1703 15.9301 18.5344 16.3989 18.0656C16.8677 17.5967 17.5036 17.3333 18.1667 17.3333H29.8333C30.4964 17.3333 31.1323 17.5967 31.6011 18.0656C32.0699 18.5344 32.3333 19.1703 32.3333 19.8333V20.6667H15.6667V19.8333ZM29.8333 32.3333H18.1667C17.5036 32.3333 16.8677 32.0699 16.3989 31.6011C15.9301 31.1323 15.6667 30.4964 15.6667 29.8333V22.3333H32.3333V29.8333C32.3333 30.4964 32.0699 31.1323 31.6011 31.6011C31.1323 32.0699 30.4964 32.3333 29.8333 32.3333Z" fill="white"/>
<path d="M24 27.75C24.6904 27.75 25.25 27.1904 25.25 26.5C25.25 25.8096 24.6904 25.25 24 25.25C23.3096 25.25 22.75 25.8096 22.75 26.5C22.75 27.1904 23.3096 27.75 24 27.75Z" fill="white"/>
<path d="M19.834 27.75C20.5243 27.75 21.084 27.1904 21.084 26.5C21.084 25.8096 20.5243 25.25 19.834 25.25C19.1436 25.25 18.584 25.8096 18.584 26.5C18.584 27.1904 19.1436 27.75 19.834 27.75Z" fill="white"/>
<path d="M28.166 27.75C28.8564 27.75 29.416 27.1904 29.416 26.5C29.416 25.8096 28.8564 25.25 28.166 25.25C27.4757 25.25 26.916 25.8096 26.916 26.5C26.916 27.1904 27.4757 27.75 28.166 27.75Z" fill="white"/>
</g>
<defs>
<clipPath id="clip0_2854_7733">
<rect width="20" height="20" fill="white" transform="translate(14 14)"/>
</clipPath>
</defs>
</svg>
