<svg width="45" height="45" viewBox="0 0 45 45" fill="none" xmlns="http://www.w3.org/2000/svg">
<rect opacity="0.2" width="45" height="45" rx="8" fill="#D9E5F0"/>
<path opacity="0.5" fill-rule="evenodd" clip-rule="evenodd" d="M30.619 23.2319V28.1579C30.619 30.0263 29.889 31.4371 28.7563 32.3588C27.6397 33.2674 26.1785 33.6643 24.7514 33.6223C21.9284 33.5393 18.9199 31.6834 18.9199 28.1579L20.1514 28.1579C20.1514 30.7897 22.3767 32.3204 24.7876 32.3913C25.9773 32.4263 27.133 32.092 27.9791 31.4036C28.8091 30.7282 29.3875 29.676 29.3875 28.1579V23.2319H30.619Z" fill="white"/>
<path opacity="0.5" fill-rule="evenodd" clip-rule="evenodd" d="M29.3887 21.3726C29.3887 21.0325 29.6643 20.7568 30.0044 20.7568H30.0167C30.3568 20.7568 30.6325 21.0325 30.6325 21.3726V21.3849C30.6325 21.725 30.3568 22.0006 30.0167 22.0006H30.0044C29.6643 22.0006 29.3887 21.725 29.3887 21.3849V21.3726Z" fill="white"/>
<path fill-rule="evenodd" clip-rule="evenodd" d="M30.0059 20.1524C29.3258 20.1524 28.7745 20.7037 28.7745 21.3839C28.7745 22.064 29.3258 22.6153 30.0059 22.6153C30.6861 22.6153 31.2374 22.064 31.2374 21.3839C31.2374 20.7037 30.6861 20.1524 30.0059 20.1524ZM27.543 21.3839C27.543 20.0236 28.6457 18.9209 30.0059 18.9209C31.3662 18.9209 32.4689 20.0236 32.4689 21.3839C32.4689 22.7441 31.3662 23.8468 30.0059 23.8468C28.6457 23.8468 27.543 22.7441 27.543 21.3839Z" fill="white"/>
<path fill-rule="evenodd" clip-rule="evenodd" d="M17.6896 12.7637C17.3495 12.7637 17.0739 13.0394 17.0739 13.3794C17.0739 13.7195 17.3495 13.9952 17.6896 13.9952C18.0297 13.9952 18.3053 13.7195 18.3053 13.3794C18.3053 13.0394 18.0297 12.7637 17.6896 12.7637ZM15.9657 14.0444C16.2326 14.736 16.9038 15.2267 17.6896 15.2267C18.7098 15.2267 19.5368 14.3996 19.5368 13.3794C19.5368 12.3593 18.7098 11.5322 17.6896 11.5322C16.8716 11.5322 16.1778 12.0639 15.9349 12.8005C14.1423 13.0546 12.7637 14.5954 12.7637 16.4582V21.9998C12.7637 25.7405 15.7961 28.773 19.5368 28.773C23.2775 28.773 26.31 25.7405 26.31 21.9998V15.8424C26.31 14.3213 25.2069 13.0579 23.7571 12.8084C23.5165 12.0677 22.8207 11.5322 21.9998 11.5322C20.9796 11.5322 20.1526 12.3593 20.1526 13.3794C20.1526 14.3996 20.9796 15.2267 21.9998 15.2267C22.7797 15.2267 23.4467 14.7433 23.7176 14.0599C24.5019 14.2734 25.0785 14.9906 25.0785 15.8424V21.9998C25.0785 25.0604 22.5974 27.5415 19.5368 27.5415C16.4762 27.5415 13.9952 25.0604 13.9952 21.9998V16.4582C13.9952 15.2665 14.8414 14.2726 15.9657 14.0444ZM21.9998 12.7637C21.6597 12.7637 21.384 13.0394 21.384 13.3794C21.384 13.7195 21.6597 13.9952 21.9998 13.9952C22.3398 13.9952 22.6155 13.7195 22.6155 13.3794C22.6155 13.0394 22.3398 12.7637 21.9998 12.7637Z" fill="white"/>
</svg>
