<svg width="44" height="44" viewBox="0 0 44 44" fill="none" xmlns="http://www.w3.org/2000/svg">
<circle cx="22" cy="22" r="22" fill="#DADEE6"/>
<g clip-path="url(#clip0_2859_7604)">
<path d="M21.2871 30.3833C21.8658 30.9501 22.5974 31.3356 23.3922 31.4923C24.1869 31.6491 25.0101 31.5703 25.7607 31.2657C26.5112 30.9611 27.1565 30.4439 27.6172 29.7776C28.0779 29.1113 28.334 28.325 28.3539 27.5152L21.2871 30.3833Z" fill="#0074E5"/>
<path d="M30.1959 19.167L27.0619 15.292C26.0054 13.9206 24.521 12.9415 22.8444 12.5101C21.1678 12.0787 19.3952 12.2197 17.8079 12.9108C16.2207 13.6019 14.9098 14.8035 14.0834 16.3247C13.257 17.8459 12.9625 19.5996 13.2466 21.3073L13.9409 26.0052C14.0332 26.6294 14.266 27.2246 14.6218 27.7458C14.9777 28.2669 15.4472 28.7004 15.9951 29.0136C16.5429 29.3267 17.1548 29.5114 17.7844 29.5536C18.414 29.5957 19.045 29.4943 19.6298 29.257L28.5227 25.6478C29.1256 25.4031 29.6628 25.0207 30.0913 24.5311C30.5198 24.0415 30.8277 23.4584 30.9903 22.8285C31.153 22.1985 31.1658 21.5392 31.0279 20.9034C30.8899 20.2676 30.605 19.6729 30.1959 19.167V19.167Z" fill="#0074E5"/>
</g>
<defs>
<clipPath id="clip0_2859_7604">
<rect width="20" height="20" fill="white" transform="translate(8.97266 16.4946) rotate(-22.0899)"/>
</clipPath>
</defs>
</svg>
