<svg width="45" height="45" viewBox="0 0 45 45" fill="none" xmlns="http://www.w3.org/2000/svg">
<rect width="45" height="45" rx="8" fill="#12CC7E"/>
<g clip-path="url(#clip0_2855_7612)">
<path d="M26.5835 11H17.4168C16.2017 11.0015 15.0368 11.4848 14.1775 12.344C13.3183 13.2033 12.835 14.3682 12.8335 15.5833V29.3333C12.8335 30.3058 13.2198 31.2384 13.9074 31.9261C14.5951 32.6137 15.5277 33 16.5002 33H26.5835C27.7986 32.9985 28.9636 32.5152 29.8228 31.656C30.682 30.7967 31.1654 29.6318 31.1668 28.4167V15.5833C31.1654 14.3682 30.682 13.2033 29.8228 12.344C28.9636 11.4848 27.7986 11.0015 26.5835 11V11ZM29.3335 15.5833V25.6667H18.3335V12.8333H26.5835C27.3128 12.8333 28.0123 13.1231 28.528 13.6388C29.0438 14.1545 29.3335 14.854 29.3335 15.5833ZM16.5002 12.991V25.6667C15.8563 25.6661 15.2238 25.8359 14.6668 26.1589V15.5833C14.6669 15.0147 14.8433 14.4601 15.1716 13.9959C15.4999 13.5316 15.9641 13.1805 16.5002 12.991ZM26.5835 31.1667H16.5002C16.0139 31.1667 15.5476 30.9735 15.2038 30.6297C14.86 30.2859 14.6668 29.8196 14.6668 29.3333C14.6668 28.8471 14.86 28.3808 15.2038 28.037C15.5476 27.6932 16.0139 27.5 16.5002 27.5H29.3335V28.4167C29.3335 29.146 29.0438 29.8455 28.528 30.3612C28.0123 30.8769 27.3128 31.1667 26.5835 31.1667Z" fill="white"/>
</g>
<defs>
<clipPath id="clip0_2855_7612">
<rect width="22" height="22" fill="white" transform="translate(11 11)"/>
</clipPath>
</defs>
</svg>
