<svg width="556" height="150" viewBox="0 0 556 150" fill="none" xmlns="http://www.w3.org/2000/svg">
<path d="M23.1534 148.58C18.608 148.58 14.5952 147.431 11.1151 145.135C7.63494 142.815 4.91241 139.548 2.94744 135.334C0.982481 131.096 0 126.089 0 120.313C0 114.583 0.982481 109.612 2.94744 105.398C4.91241 101.184 7.64678 97.9285 11.1506 95.6321C14.6544 93.3357 18.7027 92.1875 23.2955 92.1875C26.8466 92.1875 29.652 92.7794 31.7116 93.9631C33.795 95.1231 35.3812 96.4489 36.4702 97.9404C37.5829 99.4082 38.447 100.616 39.0625 101.562H39.7727V74.7159H48.1534V147.443H40.0568V139.063H39.0625C38.447 140.057 37.571 141.312 36.4347 142.827C35.2983 144.318 33.6766 145.656 31.5696 146.839C29.4626 148 26.6572 148.58 23.1534 148.58ZM24.2898 141.051C27.6515 141.051 30.4924 140.175 32.8125 138.423C35.1326 136.648 36.8963 134.197 38.1037 131.072C39.3111 127.924 39.9148 124.29 39.9148 120.17C39.9148 116.098 39.3229 112.536 38.1392 109.482C36.9555 106.404 35.2036 104.013 32.8835 102.308C30.5634 100.58 27.6989 99.7159 24.2898 99.7159C20.7386 99.7159 17.7794 100.627 15.4119 102.45C13.0682 104.25 11.3045 106.7 10.1207 109.801C8.9607 112.879 8.38068 116.335 8.38068 120.17C8.38068 124.053 8.97254 127.581 10.1563 130.753C11.3636 133.902 13.1392 136.411 15.483 138.281C17.8504 140.128 20.786 141.051 24.2898 141.051Z" fill="white"/>
<path d="M64.6662 147.443V92.8977H72.7628V101.136H73.331C74.3253 98.4375 76.1245 96.2476 78.7287 94.5668C81.3329 92.8859 84.2685 92.0455 87.5355 92.0455C88.151 92.0455 88.9205 92.0573 89.8438 92.081C90.767 92.1047 91.4654 92.1402 91.9389 92.1875V100.71C91.6548 100.639 91.0038 100.533 89.9858 100.391C88.9915 100.225 87.938 100.142 86.8253 100.142C84.1738 100.142 81.8063 100.698 79.723 101.811C77.6633 102.9 76.0298 104.415 74.8224 106.357C73.6387 108.274 73.0469 110.464 73.0469 112.926V147.443H64.6662Z" fill="white"/>
<path d="M101.731 148.011C99.9793 148.011 98.476 147.384 97.2212 146.129C95.9665 144.875 95.3391 143.371 95.3391 141.619C95.3391 139.867 95.9665 138.364 97.2212 137.109C98.476 135.855 99.9793 135.227 101.731 135.227C103.483 135.227 104.986 135.855 106.241 137.109C107.496 138.364 108.123 139.867 108.123 141.619C108.123 142.779 107.827 143.845 107.235 144.815C106.667 145.786 105.898 146.567 104.927 147.159C103.98 147.727 102.915 148.011 101.731 148.011Z" fill="white"/>
<path d="M215.35 1.98864H241.486V104.261C241.439 113.636 239.45 121.709 235.52 128.48C231.59 135.204 226.098 140.388 219.043 144.034C212.035 147.633 203.868 149.432 194.54 149.432C186.017 149.432 178.347 147.917 171.529 144.886C164.758 141.809 159.384 137.263 155.407 131.25C151.429 125.237 149.441 117.756 149.441 108.807H175.648C175.695 112.737 176.548 116.122 178.205 118.963C179.909 121.804 182.253 123.982 185.236 125.497C188.219 127.012 191.652 127.77 195.534 127.77C199.748 127.77 203.323 126.894 206.259 125.142C209.194 123.343 211.42 120.691 212.935 117.188C214.498 113.684 215.302 109.375 215.35 104.261V1.98864Z" fill="white"/>
<path d="M400.044 74.7159C400.044 90.3883 397.109 103.812 391.238 114.986C385.414 126.113 377.459 134.635 367.374 140.554C357.336 146.473 345.949 149.432 333.212 149.432C320.475 149.432 309.064 146.473 298.979 140.554C288.941 134.588 280.987 126.042 275.115 114.915C269.292 103.741 266.38 90.3409 266.38 74.7159C266.38 59.0436 269.292 45.6439 275.115 34.517C280.987 23.3428 288.941 14.7964 298.979 8.87784C309.064 2.95928 320.475 0 333.212 0C345.949 0 357.336 2.95928 367.374 8.87784C377.459 14.7964 385.414 23.3428 391.238 34.517C397.109 45.6439 400.044 59.0436 400.044 74.7159ZM373.553 74.7159C373.553 63.6837 371.825 54.3797 368.368 46.804C364.959 39.1809 360.224 33.428 354.164 29.5455C348.103 25.6155 341.119 23.6506 333.212 23.6506C325.305 23.6506 318.321 25.6155 312.26 29.5455C306.2 33.428 301.441 39.1809 297.985 46.804C294.576 54.3797 292.871 63.6837 292.871 74.7159C292.871 85.7481 294.576 95.0758 297.985 102.699C301.441 110.275 306.2 116.027 312.26 119.957C318.321 123.84 325.305 125.781 333.212 125.781C341.119 125.781 348.103 123.84 354.164 119.957C360.224 116.027 364.959 110.275 368.368 102.699C371.825 95.0758 373.553 85.7481 373.553 74.7159Z" fill="white"/>
<path d="M457 149V49.5L516 139.5V94L453 3H428V149H457Z" fill="white"/>
<path d="M530 149V0H556V149H530Z" fill="white"/>
</svg>
