<svg width="22" height="23" viewBox="0 0 22 23" fill="none" xmlns="http://www.w3.org/2000/svg">
<path d="M21.9999 11.7564C21.9999 11.0088 21.9344 10.2992 21.822 9.6084H11.2388V13.8759H17.2984C17.0268 15.2764 16.2307 16.4592 15.0506 17.2635V20.1022H18.6658C20.7824 18.1245 21.9999 15.2101 21.9999 11.7564Z" fill="#4285F4"/>
<path d="M11.2388 22.855C14.2733 22.855 16.8114 21.833 18.6658 20.1014L15.0506 17.2627C14.0391 17.944 12.756 18.3603 11.2388 18.3603C8.30732 18.3603 5.82541 16.3638 4.93567 13.667H1.20813V16.5909C3.05317 20.3001 6.84627 22.855 11.2388 22.855Z" fill="#34A853"/>
<path d="M4.93572 13.6668C4.70158 12.9855 4.57982 12.2569 4.57982 11.4999C4.57982 10.7429 4.71094 10.0143 4.93572 9.33305V6.40918H1.20817C0.440187 7.94208 0 9.66423 0 11.4999C0 13.3356 0.440187 15.0578 1.20817 16.5907L4.93572 13.6668Z" fill="#FBBC05"/>
<path d="M11.2388 4.64013C12.8965 4.64013 14.3763 5.21734 15.547 6.34336L18.7501 3.10723C16.8114 1.27153 14.2733 0.145508 11.2388 0.145508C6.84628 0.145508 3.05317 2.70035 1.20813 6.4096L4.93567 9.33347C5.82542 6.63669 8.30732 4.64013 11.2388 4.64013Z" fill="#EA4335"/>
</svg>
