<svg width="21" height="21" viewBox="0 0 21 21" fill="none" xmlns="http://www.w3.org/2000/svg">
<g clip-path="url(#clip0_76_2790)">
<path d="M17.0931 2.73179L15.6441 1.28104C15.2387 0.873564 14.7565 0.550537 14.2254 0.330654C13.6943 0.110771 13.1249 -0.0016011 12.5501 4.06204e-05H7C5.8401 0.00143 4.72811 0.462812 3.90794 1.28298C3.08777 2.10315 2.62639 3.21514 2.625 4.37504V16.625C2.62639 17.7849 3.08777 18.8969 3.90794 19.7171C4.72811 20.5373 5.8401 20.9987 7 21H14C15.1599 20.9987 16.2719 20.5373 17.0921 19.7171C17.9122 18.8969 18.3736 17.7849 18.375 16.625V5.82492C18.3764 5.2502 18.2638 4.68091 18.0438 4.14998C17.8238 3.61906 17.5007 3.13703 17.0931 2.73179ZM15.8559 3.96904C15.98 4.0927 16.0911 4.22874 16.1875 4.37504H14V2.18754C14.1461 2.28495 14.2823 2.3963 14.4069 2.52004L15.8559 3.96904ZM16.625 16.625C16.625 17.3212 16.3484 17.9889 15.8562 18.4812C15.3639 18.9735 14.6962 19.25 14 19.25H7C6.30381 19.25 5.63613 18.9735 5.14384 18.4812C4.65156 17.9889 4.375 17.3212 4.375 16.625V4.37504C4.375 3.67885 4.65156 3.01117 5.14384 2.51889C5.63613 2.0266 6.30381 1.75004 7 1.75004H12.25V4.37504C12.25 4.83917 12.4344 5.28429 12.7626 5.61248C13.0908 5.94067 13.5359 6.12504 14 6.12504H16.625V16.625ZM14 7.87504C14.2321 7.87504 14.4546 7.96723 14.6187 8.13132C14.7828 8.29542 14.875 8.51798 14.875 8.75004C14.875 8.98211 14.7828 9.20466 14.6187 9.36876C14.4546 9.53285 14.2321 9.62504 14 9.62504H7C6.76794 9.62504 6.54538 9.53285 6.38128 9.36876C6.21719 9.20466 6.125 8.98211 6.125 8.75004C6.125 8.51798 6.21719 8.29542 6.38128 8.13132C6.54538 7.96723 6.76794 7.87504 7 7.87504H14ZM14.875 12.25C14.875 12.4821 14.7828 12.7047 14.6187 12.8688C14.4546 13.0329 14.2321 13.125 14 13.125H7C6.76794 13.125 6.54538 13.0329 6.38128 12.8688C6.21719 12.7047 6.125 12.4821 6.125 12.25C6.125 12.018 6.21719 11.7954 6.38128 11.6313C6.54538 11.4672 6.76794 11.375 7 11.375H14C14.2321 11.375 14.4546 11.4672 14.6187 11.6313C14.7828 11.7954 14.875 12.018 14.875 12.25ZM14.707 15.2364C14.843 15.4235 14.8994 15.6569 14.8638 15.8855C14.8282 16.1141 14.7036 16.3192 14.5171 16.4562C13.6306 17.0879 12.5806 17.4503 11.4931 17.5C10.8578 17.497 10.2417 17.2814 9.74313 16.8875C9.45613 16.6907 9.34675 16.625 9.13063 16.625C8.54562 16.7156 7.99366 16.9548 7.52763 17.3198C7.34278 17.4516 7.11396 17.5063 6.88948 17.4726C6.665 17.4388 6.46244 17.3191 6.32457 17.1387C6.18671 16.9584 6.12432 16.7315 6.15059 16.506C6.17686 16.2806 6.28974 16.0741 6.46538 15.9303C7.23641 15.3317 8.16225 14.9656 9.13413 14.875C9.71699 14.8844 10.2805 15.0858 10.7371 15.4482C10.9453 15.6354 11.2133 15.7424 11.4931 15.75C12.2086 15.6964 12.8966 15.452 13.4855 15.0422C13.6733 14.9061 13.9074 14.8501 14.1365 14.8865C14.3655 14.9229 14.5707 15.0488 14.707 15.2364Z" fill="#848D9F"/>
</g>
<defs>
<clipPath id="clip0_76_2790">
<rect width="21" height="21" fill="white"/>
</clipPath>
</defs>
</svg>
