<svg width="21" height="21" viewBox="0 0 21 21" fill="none" xmlns="http://www.w3.org/2000/svg">
<g clip-path="url(#clip0_72_2784)">
<path d="M16.625 1.75H15.75V0.875C15.75 0.642936 15.6578 0.420376 15.4937 0.256282C15.3296 0.0921872 15.1071 0 14.875 0C14.6429 0 14.4204 0.0921872 14.2563 0.256282C14.0922 0.420376 14 0.642936 14 0.875V1.75H7V0.875C7 0.642936 6.90781 0.420376 6.74372 0.256282C6.57962 0.0921872 6.35706 0 6.125 0C5.89294 0 5.67038 0.0921872 5.50628 0.256282C5.34219 0.420376 5.25 0.642936 5.25 0.875V1.75H4.375C3.2151 1.75139 2.10311 2.21277 1.28294 3.03294C0.462772 3.85311 0.00138938 4.9651 0 6.125L0 16.625C0.00138938 17.7849 0.462772 18.8969 1.28294 19.7171C2.10311 20.5372 3.2151 20.9986 4.375 21H16.625C17.7849 20.9986 18.8969 20.5372 19.7171 19.7171C20.5372 18.8969 20.9986 17.7849 21 16.625V6.125C20.9986 4.9651 20.5372 3.85311 19.7171 3.03294C18.8969 2.21277 17.7849 1.75139 16.625 1.75ZM1.75 6.125C1.75 5.42881 2.02656 4.76113 2.51884 4.26884C3.01113 3.77656 3.67881 3.5 4.375 3.5H16.625C17.3212 3.5 17.9889 3.77656 18.4812 4.26884C18.9734 4.76113 19.25 5.42881 19.25 6.125V7H1.75V6.125ZM16.625 19.25H4.375C3.67881 19.25 3.01113 18.9734 2.51884 18.4812C2.02656 17.9889 1.75 17.3212 1.75 16.625V8.75H19.25V16.625C19.25 17.3212 18.9734 17.9889 18.4812 18.4812C17.9889 18.9734 17.3212 19.25 16.625 19.25Z" fill="#848D9F"/>
<path d="M10.5 14.4375C11.2249 14.4375 11.8125 13.8499 11.8125 13.125C11.8125 12.4001 11.2249 11.8125 10.5 11.8125C9.77513 11.8125 9.1875 12.4001 9.1875 13.125C9.1875 13.8499 9.77513 14.4375 10.5 14.4375Z" fill="#848D9F"/>
<path d="M6.125 14.4375C6.84987 14.4375 7.4375 13.8499 7.4375 13.125C7.4375 12.4001 6.84987 11.8125 6.125 11.8125C5.40013 11.8125 4.8125 12.4001 4.8125 13.125C4.8125 13.8499 5.40013 14.4375 6.125 14.4375Z" fill="#848D9F"/>
<path d="M14.875 14.4375C15.5999 14.4375 16.1875 13.8499 16.1875 13.125C16.1875 12.4001 15.5999 11.8125 14.875 11.8125C14.1501 11.8125 13.5625 12.4001 13.5625 13.125C13.5625 13.8499 14.1501 14.4375 14.875 14.4375Z" fill="#848D9F"/>
</g>
<defs>
<clipPath id="clip0_72_2784">
<rect width="21" height="21" fill="white"/>
</clipPath>
</defs>
</svg>
