<svg width="171" height="71" viewBox="0 0 171 71" fill="none" xmlns="http://www.w3.org/2000/svg">
<path d="M0 54.747V0H9.95895V46.4334H34.1718V54.747H0Z" fill="#8A99A0"/>
<path d="M59.5837 55.5489C55.5572 55.5489 52.0675 54.6668 49.1147 52.9025C46.1619 51.1382 43.8713 48.6699 42.2428 45.4977C40.6322 42.3256 39.8268 38.6187 39.8268 34.3773C39.8268 30.1358 40.6322 26.4201 42.2428 23.23C43.8713 20.04 46.1619 17.5629 49.1147 15.7986C52.0675 14.0343 55.5572 13.1521 59.5837 13.1521C63.6102 13.1521 67.0999 14.0343 70.0527 15.7986C73.0054 17.5629 75.2871 20.04 76.8978 23.23C78.5263 26.4201 79.3405 30.1358 79.3405 34.3773C79.3405 38.6187 78.5263 42.3256 76.8978 45.4977C75.2871 48.6699 73.0054 51.1382 70.0527 52.9025C67.0999 54.6668 63.6102 55.5489 59.5837 55.5489ZM59.6374 47.7967C61.8206 47.7967 63.646 47.1997 65.1135 46.0056C66.5809 44.7938 67.6725 43.1721 68.3884 41.1404C69.1221 39.1088 69.4889 36.8455 69.4889 34.3505C69.4889 31.8377 69.1221 29.5655 68.3884 27.5339C67.6725 25.4844 66.5809 23.8538 65.1135 22.6419C63.646 21.4301 61.8206 20.8242 59.6374 20.8242C57.4004 20.8242 55.5393 21.4301 54.0539 22.6419C52.5865 23.8538 51.4859 25.4844 50.7522 27.5339C50.0363 29.5655 49.6784 31.8377 49.6784 34.3505C49.6784 36.8455 50.0363 39.1088 50.7522 41.1404C51.4859 43.1721 52.5865 44.7938 54.0539 46.0056C55.5393 47.1997 57.4004 47.7967 59.6374 47.7967Z" fill="#8A99A0"/>
<path d="M104.732 71C101.243 71 98.2451 70.5277 95.7397 69.5832C93.2343 68.6565 91.221 67.409 89.6999 65.8407C88.1787 64.2725 87.1229 62.5349 86.5323 60.628L95.2833 58.5162C95.677 59.3181 96.2497 60.1112 97.0013 60.8953C97.7529 61.6973 98.764 62.3567 100.035 62.8735C101.323 63.4081 102.943 63.6755 104.893 63.6755C107.649 63.6755 109.931 63.0072 111.738 61.6706C113.546 60.3518 114.45 58.1776 114.45 55.148V47.369H113.966C113.465 48.367 112.732 49.3917 111.765 50.4431C110.817 51.4946 109.555 52.3768 107.98 53.0896C106.423 53.8025 104.464 54.1589 102.102 54.1589C98.9341 54.1589 96.0618 53.4193 93.4848 51.9401C90.9257 50.4431 88.8856 48.2155 87.3645 45.2572C85.8613 42.281 85.1096 38.5563 85.1096 34.0832C85.1096 29.5744 85.8613 25.7696 87.3645 22.6687C88.8856 19.55 90.9347 17.1886 93.5117 15.5847C96.0886 13.963 98.9609 13.1521 102.128 13.1521C104.544 13.1521 106.531 13.562 108.088 14.3818C109.663 15.1837 110.915 16.155 111.846 17.2956C112.776 18.4183 113.483 19.4787 113.966 20.4767H114.503V13.6867H124.086V55.4153C124.086 58.9261 123.245 61.8309 121.563 64.1299C119.881 66.4288 117.581 68.1486 114.664 69.2892C111.747 70.4297 108.437 71 104.732 71ZM104.813 46.567C106.871 46.567 108.625 46.068 110.074 45.07C111.524 44.072 112.624 42.6374 113.376 40.7662C114.127 38.895 114.503 36.6495 114.503 34.0297C114.503 31.4457 114.127 29.1824 113.376 27.2398C112.642 25.2973 111.551 23.7914 110.101 22.7221C108.669 21.635 106.907 21.0915 104.813 21.0915C102.647 21.0915 100.84 21.6529 99.3904 22.7756C97.9408 23.8983 96.8492 25.4399 96.1155 27.4002C95.3818 29.3427 95.0149 31.5526 95.0149 34.0297C95.0149 36.5425 95.3818 38.7435 96.1155 40.6325C96.8671 42.5038 97.9677 43.9651 99.4172 45.0166C100.885 46.0502 102.683 46.567 104.813 46.567Z" fill="#8A99A0"/>
<path d="M151.243 55.5489C147.217 55.5489 143.727 54.6668 140.774 52.9025C137.821 51.1382 135.531 48.6699 133.902 45.4977C132.292 42.3256 131.486 38.6187 131.486 34.3773C131.486 30.1358 132.292 26.4201 133.902 23.23C135.531 20.04 137.821 17.5629 140.774 15.7986C143.727 14.0343 147.217 13.1521 151.243 13.1521C155.27 13.1521 158.759 14.0343 161.712 15.7986C164.665 17.5629 166.947 20.04 168.557 23.23C170.186 26.4201 171 30.1358 171 34.3773C171 38.6187 170.186 42.3256 168.557 45.4977C166.947 48.6699 164.665 51.1382 161.712 52.9025C158.759 54.6668 155.27 55.5489 151.243 55.5489ZM151.297 47.7967C153.48 47.7967 155.305 47.1997 156.773 46.0056C158.24 44.7938 159.332 43.1721 160.048 41.1404C160.782 39.1088 161.148 36.8455 161.148 34.3505C161.148 31.8377 160.782 29.5655 160.048 27.5339C159.332 25.4844 158.24 23.8538 156.773 22.6419C155.305 21.4301 153.48 20.8242 151.297 20.8242C149.06 20.8242 147.199 21.4301 145.713 22.6419C144.246 23.8538 143.145 25.4844 142.412 27.5339C141.696 29.5655 141.338 31.8377 141.338 34.3505C141.338 36.8455 141.696 39.1088 142.412 41.1404C143.145 43.1721 144.246 44.7938 145.713 46.0056C147.199 47.1997 149.06 47.7967 151.297 47.7967Z" fill="#8A99A0"/>
</svg>
