<svg width="34" height="34" viewBox="0 0 34 34" fill="none" xmlns="http://www.w3.org/2000/svg">
<g clip-path="url(#clip0_78_2804)">
<path fill-rule="evenodd" clip-rule="evenodd" d="M17.7071 4.95705C17.3166 4.56652 16.6834 4.56652 16.2929 4.95705L12.0405 9.20942C11.65 9.59995 11.65 10.2331 12.0405 10.6236L16.2929 14.876C16.6834 15.2665 17.3166 15.2665 17.7071 14.876L21.9595 10.6236C22.35 10.2331 22.35 9.59995 21.9595 9.20942L17.7071 4.95705ZM17.7071 12.0427C17.3166 12.4332 16.6834 12.4332 16.2929 12.0427L14.8738 10.6236C14.4833 10.2331 14.4833 9.59995 14.8738 9.20942L16.2929 7.79034C16.6834 7.39982 17.3166 7.39982 17.7071 7.79034L19.1262 9.20942C19.5167 9.59995 19.5167 10.2331 19.1262 10.6236L17.7071 12.0427ZM10.6239 12.0403C10.2333 11.6498 9.60018 11.6498 9.20965 12.0403L4.95728 16.2927C4.56675 16.6832 4.56675 17.3164 4.95728 17.7069L9.20965 21.9593C9.60018 22.3498 10.2333 22.3498 10.6239 21.9593L14.8762 17.7069C15.2668 17.3164 15.2668 16.6832 14.8762 16.2927L10.6239 12.0403ZM10.6239 19.126C10.2333 19.5165 9.60018 19.5165 9.20965 19.126L7.79057 17.7069C7.40005 17.3164 7.40005 16.6832 7.79057 16.2927L9.20965 14.8736C9.60018 14.4831 10.2333 14.4831 10.6239 14.8736L12.0429 16.2927C12.4335 16.6832 12.4335 17.3164 12.0429 17.7069L10.6239 19.126ZM24.7903 12.0403C24.3998 11.6498 23.7667 11.6498 23.3761 12.0403L19.1238 16.2927C18.7332 16.6832 18.7332 17.3164 19.1238 17.7069L23.3761 21.9593C23.7667 22.3498 24.3998 22.3498 24.7903 21.9593L29.0427 17.7069C29.4332 17.3164 29.4332 16.6832 29.0427 16.2927L24.7903 12.0403ZM24.7903 19.126C24.3998 19.5165 23.7667 19.5165 23.3761 19.126L21.9571 17.7069C21.5665 17.3164 21.5665 16.6832 21.9571 16.2927L23.3761 14.8736C23.7667 14.4831 24.3998 14.4831 24.7903 14.8736L26.2094 16.2927C26.6 16.6832 26.6 17.3164 26.2094 17.7069L24.7903 19.126ZM17.7071 19.1235C17.3166 18.733 16.6834 18.733 16.2929 19.1235L12.0405 23.3759C11.65 23.7664 11.65 24.3996 12.0405 24.7901L16.2929 29.0425C16.6834 29.433 17.3166 29.433 17.7071 29.0425L21.9595 24.7901C22.35 24.3996 22.35 23.7664 21.9595 23.3759L17.7071 19.1235ZM17.7071 26.2092C17.3166 26.5997 16.6834 26.5997 16.2929 26.2092L14.8738 24.7901C14.4833 24.3996 14.4833 23.7664 14.8738 23.3759L16.2929 21.9568C16.6834 21.5663 17.3166 21.5663 17.7071 21.9568L19.1262 23.3759C19.5167 23.7664 19.5167 24.3996 19.1262 24.7901L17.7071 26.2092Z" fill="#848D9F"/>
</g>
<defs>
<clipPath id="clip0_78_2804">
<rect width="24.0413" height="24.0413" fill="white" transform="translate(17) rotate(45)"/>
</clipPath>
</defs>
</svg>
