<svg width="48" height="48" viewBox="0 0 48 48" fill="none" xmlns="http://www.w3.org/2000/svg">
<rect width="48" height="48" rx="8" fill="#FF4545"/>
<path d="M32.75 31.5V31.5C34.4759 31.5 35.875 30.1009 35.875 28.375V25.875M32.75 31.5C32.75 32.5355 31.9105 33.375 30.875 33.375C29.8395 33.375 29 32.5355 29 31.5M32.75 31.5C32.75 30.4645 31.9105 29.625 30.875 29.625C29.8395 29.625 29 30.4645 29 31.5M34.0521 20.25L32.6576 17.8595C32.0925 16.8908 31.81 16.4064 31.3474 16.1407C30.8848 15.875 30.324 15.875 29.2025 15.875H28.8933M34.0521 20.25L35.3301 22.4409C35.601 22.9052 35.7364 23.1374 35.8057 23.3937C35.875 23.6501 35.875 23.9189 35.875 24.4564V25.875M34.0521 20.25H32.125C31.7798 20.25 31.5 20.5298 31.5 20.875V24.625C31.5 25.3154 32.0596 25.875 32.75 25.875H35.875M12.75 25.25V27.75C12.75 29.8211 14.4289 31.5 16.5 31.5H18.375M12.75 25.25V17.75C12.75 16.0241 14.1491 14.625 15.875 14.625H27.125C27.9414 14.625 28.6359 15.1468 28.8933 15.875M12.75 25.25H27.125C28.1605 25.25 29 24.4105 29 23.375V16.5C29 16.2809 28.9624 16.0705 28.8933 15.875M29 31.5H22.125M22.125 31.5C22.125 32.5355 21.2855 33.375 20.25 33.375C19.2145 33.375 18.375 32.5355 18.375 31.5M22.125 31.5C22.125 30.4645 21.2855 29.625 20.25 29.625C19.2145 29.625 18.375 30.4645 18.375 31.5" stroke="white" stroke-width="1.5" stroke-linecap="round"/>
<path d="M21.3132 17.8795C21.3125 17.9299 21.3125 17.9883 21.3125 18.0625V18.6575C21.3125 18.6582 21.3125 18.6716 21.3122 18.6858C21.3118 18.6995 21.3108 18.7327 21.3053 18.7739C21.2935 18.8611 21.2532 19.0487 21.0884 19.2134L21.3132 17.8795ZM21.3132 17.8795C21.3132 17.8782 21.3132 17.877 21.3132 17.8757M21.3132 17.8795L21.3132 17.8757M21.3132 17.8757C21.3145 17.8757 21.3157 17.8757 21.317 17.8757C21.3674 17.875 21.4258 17.875 21.5 17.875C21.5742 17.875 21.6326 17.875 21.683 17.8757C21.6843 17.8757 21.6855 17.8757 21.6868 17.8757C21.6868 17.877 21.6868 17.8782 21.6868 17.8795C21.6875 17.9299 21.6875 17.9883 21.6875 18.0625V18.6575L21.6875 18.6578C21.6875 18.6598 21.6875 18.6725 21.6878 18.6858C21.6882 18.6995 21.6892 18.7327 21.6947 18.7739C21.7065 18.8611 21.7468 19.0487 21.9116 19.2134L21.3132 17.8757ZM20.5328 19.4375L20.5325 19.4375H19.9375C19.8633 19.4375 19.8049 19.4375 19.7545 19.4382C19.7532 19.4382 19.752 19.4382 19.7507 19.4382C19.7507 19.4395 19.7507 19.4407 19.7507 19.442C19.75 19.4924 19.75 19.5508 19.75 19.625C19.75 19.6992 19.75 19.7576 19.7507 19.808C19.7507 19.8093 19.7507 19.8105 19.7507 19.8118C19.752 19.8118 19.7532 19.8118 19.7545 19.8118C19.8049 19.8125 19.8633 19.8125 19.9375 19.8125H20.5325L20.5328 19.8125C20.5348 19.8125 20.5475 19.8125 20.5608 19.8128C20.5745 19.8132 20.6077 19.8142 20.6489 19.8197C20.7361 19.8315 20.9237 19.8718 21.0884 20.0366L20.5328 19.4375ZM20.5328 19.4375C20.5348 19.4375 20.5475 19.4375 20.5608 19.4372M20.5328 19.4375L20.5608 19.4372M20.5608 19.4372C20.5745 19.4368 20.6077 19.4358 20.6489 19.4303M20.5608 19.4372L20.6489 19.4303M20.6489 19.4303C20.7361 19.4185 20.9237 19.3782 21.0884 19.2134L20.6489 19.4303ZM21.3125 20.5922L21.3125 20.5925V21.1875C21.3125 21.2617 21.3125 21.3201 21.3132 21.3705C21.3132 21.3718 21.3132 21.373 21.3132 21.3743C21.3145 21.3743 21.3157 21.3743 21.317 21.3743C21.3674 21.375 21.4258 21.375 21.5 21.375C21.5742 21.375 21.6326 21.375 21.683 21.3743C21.6843 21.3743 21.6855 21.3743 21.6868 21.3743C21.6868 21.373 21.6868 21.3718 21.6868 21.3705C21.6875 21.3201 21.6875 21.2617 21.6875 21.1875V20.5925C21.6875 20.5918 21.6875 20.5784 21.6878 20.5642C21.6882 20.5505 21.6892 20.5173 21.6947 20.4761C21.7065 20.3888 21.7468 20.2013 21.9115 20.0366L21.3125 20.5922ZM21.3125 20.5922C21.3125 20.5902 21.3125 20.5775 21.3122 20.5642M21.3125 20.5922L21.3122 20.5642M21.3122 20.5642C21.3118 20.5505 21.3108 20.5173 21.3053 20.4761M21.3122 20.5642L21.3053 20.4761M21.3053 20.4761C21.2935 20.3889 21.2532 20.2013 21.0885 20.0366L21.3053 20.4761ZM22.4392 19.8128C22.4534 19.8125 22.4668 19.8125 22.4675 19.8125H23.0625C23.1367 19.8125 23.1951 19.8125 23.2455 19.8118C23.2468 19.8118 23.248 19.8118 23.2493 19.8118C23.2493 19.8105 23.2493 19.8093 23.2493 19.808C23.25 19.7576 23.25 19.6992 23.25 19.625C23.25 19.5508 23.25 19.4924 23.2493 19.442C23.2493 19.4407 23.2493 19.4395 23.2493 19.4382C23.248 19.4382 23.2468 19.4382 23.2455 19.4382C23.1951 19.4375 23.1367 19.4375 23.0625 19.4375H22.4675L22.4672 19.4375C22.4652 19.4375 22.4525 19.4375 22.4392 19.4372C22.4255 19.4368 22.3923 19.4358 22.3511 19.4303C22.2639 19.4185 22.0763 19.3782 21.9116 19.2135L22.4392 19.8128ZM22.4392 19.8128C22.4255 19.8132 22.3923 19.8142 22.3511 19.8197M22.4392 19.8128L22.3511 19.8197M22.3511 19.8197C22.2638 19.8315 22.0763 19.8718 21.9116 20.0365L22.3511 19.8197ZM19.3858 18.7351L19.625 19.3125L19.3858 18.7351Z" stroke="white" stroke-width="1.5"/>
</svg>
