<svg width="28" height="28" viewBox="0 0 28 28" fill="none" xmlns="http://www.w3.org/2000/svg">
<g clip-path="url(#clip0_2109_5821)">
<path d="M26.9733 11.5615L22.4583 6.99988C22.3499 6.89053 22.2208 6.80374 22.0787 6.74451C21.9365 6.68528 21.784 6.65479 21.63 6.65479C21.476 6.65479 21.3235 6.68528 21.1813 6.74451C21.0392 6.80374 20.9101 6.89053 20.8017 6.99988V6.99988C20.5844 7.21847 20.4624 7.51417 20.4624 7.82238C20.4624 8.1306 20.5844 8.42629 20.8017 8.64488L24.955 12.8332H1.16667C0.857247 12.8332 0.560501 12.9561 0.341709 13.1749C0.122916 13.3937 0 13.6905 0 13.9999H0C0 14.3093 0.122916 14.606 0.341709 14.8248C0.560501 15.0436 0.857247 15.1665 1.16667 15.1665H25.025L20.8017 19.3782C20.6923 19.4867 20.6055 19.6157 20.5463 19.7579C20.4871 19.9 20.4566 20.0525 20.4566 20.2065C20.4566 20.3606 20.4871 20.5131 20.5463 20.6552C20.6055 20.7974 20.6923 20.9264 20.8017 21.0349C20.9101 21.1442 21.0392 21.231 21.1813 21.2903C21.3235 21.3495 21.476 21.38 21.63 21.38C21.784 21.38 21.9365 21.3495 22.0787 21.2903C22.2208 21.231 22.3499 21.1442 22.4583 21.0349L26.9733 16.5082C27.6288 15.852 27.9969 14.9624 27.9969 14.0349C27.9969 13.1074 27.6288 12.2178 26.9733 11.5615V11.5615Z" fill="white"/>
</g>
<defs>
<clipPath id="clip0_2109_5821">
<rect width="28" height="28" fill="white"/>
</clipPath>
</defs>
</svg>
