<svg width="12" height="12" viewBox="0 0 12 12" fill="none" xmlns="http://www.w3.org/2000/svg">
<g clip-path="url(#clip0_2109_5815)">
<path d="M11.56 4.95495L9.625 2.99995C9.57852 2.95309 9.52322 2.91589 9.46229 2.8905C9.40136 2.86512 9.33601 2.85205 9.27 2.85205C9.20399 2.85205 9.13864 2.86512 9.07771 2.8905C9.01678 2.91589 8.96148 2.95309 8.915 2.99995V2.99995C8.82187 3.09363 8.7696 3.22036 8.7696 3.35245C8.7696 3.48454 8.82187 3.61127 8.915 3.70495L10.695 5.49995H0.5C0.367392 5.49995 0.240215 5.55263 0.146447 5.6464C0.0526784 5.74016 0 5.86734 0 5.99995H0C0 6.13256 0.0526784 6.25974 0.146447 6.3535C0.240215 6.44727 0.367392 6.49995 0.5 6.49995H10.725L8.915 8.30495C8.86814 8.35143 8.83094 8.40673 8.80555 8.46766C8.78017 8.52859 8.7671 8.59394 8.7671 8.65995C8.7671 8.72596 8.78017 8.79131 8.80555 8.85224C8.83094 8.91317 8.86814 8.96847 8.915 9.01495C8.96148 9.06181 9.01678 9.09901 9.07771 9.1244C9.13864 9.14978 9.20399 9.16285 9.27 9.16285C9.33601 9.16285 9.40136 9.14978 9.46229 9.1244C9.52322 9.09901 9.57852 9.06181 9.625 9.01495L11.56 7.07495C11.8409 6.7937 11.9987 6.41245 11.9987 6.01495C11.9987 5.61745 11.8409 5.2362 11.56 4.95495V4.95495Z" fill="#0074E5"/>
</g>
<defs>
<clipPath id="clip0_2109_5815">
<rect width="12" height="12" fill="white"/>
</clipPath>
</defs>
</svg>
