<svg width="45" height="45" viewBox="0 0 45 45" fill="none" xmlns="http://www.w3.org/2000/svg">
<rect opacity="0.2" width="45" height="45" rx="8" fill="#D9E5F0"/>
<g clip-path="url(#clip0_2119_5912)">
<path d="M29.875 21.875H23.125V15.125C23.125 14.5037 22.6213 14 22 14C21.3787 14 20.875 14.5037 20.875 15.125V21.875H14.125C13.5037 21.875 13 22.3787 13 23C13 23.6213 13.5037 24.125 14.125 24.125H20.875V30.875C20.875 31.4963 21.3787 32 22 32C22.6213 32 23.125 31.4963 23.125 30.875V24.125H29.875C30.4963 24.125 31 23.6213 31 23C31 22.3787 30.4963 21.875 29.875 21.875Z" fill="white"/>
</g>
<defs>
<clipPath id="clip0_2119_5912">
<rect width="18" height="18" fill="white" transform="translate(13 14)"/>
</clipPath>
</defs>
</svg>
