<svg width="29" height="29" viewBox="0 0 29 29" fill="none" xmlns="http://www.w3.org/2000/svg">
<g clip-path="url(#clip0_1651_9858)">
<path d="M27.732 11.5998C27.5054 11.3732 27.1982 11.246 26.8777 11.246C26.5573 11.246 26.2501 11.3732 26.0235 11.5998L12.8623 24.8177C12.3013 25.3788 11.6352 25.8239 10.9022 26.1276C10.1692 26.4313 9.3835 26.5877 8.59005 26.5877C6.9876 26.5878 5.45074 25.9514 4.31756 24.8183C3.18438 23.6853 2.5477 22.1485 2.54759 20.5461C2.54747 18.9437 3.18394 17.4068 4.31696 16.2736L17.0637 3.47494C17.7453 2.80419 18.6643 2.42994 19.6206 2.43372C20.5769 2.4375 21.4929 2.819 22.1692 3.49513C22.8455 4.17125 23.2272 5.08722 23.2312 6.04351C23.2352 6.99979 22.8612 7.91893 22.1906 8.60069L9.44392 21.3994C9.21403 21.6196 8.90798 21.7425 8.58962 21.7425C8.27127 21.7425 7.96522 21.6196 7.73533 21.3994C7.5088 21.1728 7.38155 20.8655 7.38155 20.5451C7.38155 20.2247 7.5088 19.9174 7.73533 19.6908L19.084 8.29015C19.3041 8.06226 19.4259 7.75703 19.4231 7.44021C19.4204 7.12339 19.2933 6.82032 19.0693 6.59629C18.8452 6.37225 18.5422 6.24517 18.2254 6.24242C17.9085 6.23967 17.6033 6.36146 17.3754 6.58157L6.02675 17.9822C5.69007 18.3188 5.423 18.7185 5.24079 19.1583C5.05858 19.5981 4.96479 20.0696 4.96479 20.5457C4.96479 21.0218 5.05858 21.4932 5.24079 21.933C5.423 22.3729 5.69007 22.7725 6.02675 23.1092C6.71745 23.7683 7.6355 24.136 8.59023 24.136C9.54496 24.136 10.463 23.7683 11.1537 23.1092L23.8992 10.3093C25.0084 9.17139 25.6247 7.64231 25.6146 6.05325C25.6044 4.4642 24.9685 2.94313 23.8448 1.81955C22.7211 0.695979 21.1999 0.0603683 19.6109 0.0504117C18.0218 0.0404551 16.4928 0.656954 15.3551 1.76636L2.60837 14.565C1.02205 16.1514 0.130859 18.3029 0.130859 20.5463C0.130859 22.7897 1.02205 24.9412 2.60837 26.5275C4.1947 28.1139 6.34622 29.005 8.58962 29.005C10.833 29.005 12.9845 28.1139 14.5709 26.5275L27.732 13.3132C27.8449 13.2009 27.9345 13.0674 27.9956 12.9204C28.0568 12.7734 28.0882 12.6157 28.0882 12.4565C28.0882 12.2973 28.0568 12.1396 27.9956 11.9926C27.9345 11.8456 27.8449 11.7121 27.732 11.5998Z" fill="#0074E5"/>
</g>
<defs>
<clipPath id="clip0_1651_9858">
<rect width="29" height="29" fill="white"/>
</clipPath>
</defs>
</svg>
