<svg width="29" height="29" viewBox="0 0 29 29" fill="none" xmlns="http://www.w3.org/2000/svg">
<g clip-path="url(#clip0_1651_9861)">
<path d="M19.3333 18.1254C19.3333 18.4459 19.206 18.7532 18.9794 18.9798C18.7528 19.2064 18.4455 19.3337 18.125 19.3337H15.7083V21.7504C15.7083 22.0709 15.581 22.3782 15.3544 22.6048C15.1278 22.8314 14.8205 22.9587 14.5 22.9587C14.1795 22.9587 13.8722 22.8314 13.6456 22.6048C13.419 22.3782 13.2917 22.0709 13.2917 21.7504V19.3337H10.875C10.5545 19.3337 10.2472 19.2064 10.0206 18.9798C9.79397 18.7532 9.66667 18.4459 9.66667 18.1254C9.66667 17.8049 9.79397 17.4976 10.0206 17.271C10.2472 17.0444 10.5545 16.9171 10.875 16.9171H13.2917V14.5004C13.2917 14.1799 13.419 13.8726 13.6456 13.646C13.8722 13.4194 14.1795 13.2921 14.5 13.2921C14.8205 13.2921 15.1278 13.4194 15.3544 13.646C15.581 13.8726 15.7083 14.1799 15.7083 14.5004V16.9171H18.125C18.4455 16.9171 18.7528 17.0444 18.9794 17.271C19.206 17.4976 19.3333 17.8049 19.3333 18.1254ZM29 9.66707V21.7504C28.9981 23.3522 28.3609 24.8878 27.2283 26.0204C26.0957 27.153 24.5601 27.7902 22.9583 27.7921H6.04167C4.43991 27.7902 2.9043 27.153 1.77168 26.0204C0.639066 24.8878 0.00191866 23.3522 0 21.7504L0 7.25041C0.00191866 5.64865 0.639066 4.11304 1.77168 2.98042C2.9043 1.84781 4.43991 1.21066 6.04167 1.20874H9.09633C9.65869 1.20921 10.2133 1.3399 10.7167 1.59057L14.5302 3.50457C14.6987 3.58544 14.8834 3.62677 15.0703 3.62541H22.9583C24.5601 3.62733 26.0957 4.26447 27.2283 5.39709C28.3609 6.52971 28.9981 8.06531 29 9.66707ZM2.41667 7.25041V8.45874H26.361C26.112 7.75439 25.6514 7.14418 25.0423 6.7116C24.4333 6.27901 23.7054 6.04517 22.9583 6.04207H15.0703C14.508 6.04161 13.9534 5.91091 13.45 5.66024L9.63646 3.75228C9.46846 3.66933 9.2837 3.62593 9.09633 3.62541H6.04167C5.08026 3.62541 4.15822 4.00733 3.4784 4.68714C2.79859 5.36696 2.41667 6.289 2.41667 7.25041ZM26.5833 21.7504V10.8754H2.41667V21.7504C2.41667 22.7118 2.79859 23.6338 3.4784 24.3137C4.15822 24.9935 5.08026 25.3754 6.04167 25.3754H22.9583C23.9197 25.3754 24.8418 24.9935 25.5216 24.3137C26.2014 23.6338 26.5833 22.7118 26.5833 21.7504Z" fill="#0074E5"/>
</g>
<defs>
<clipPath id="clip0_1651_9861">
<rect width="29" height="29" fill="white"/>
</clipPath>
</defs>
</svg>
