<svg width="32" height="32" viewBox="0 0 32 32" fill="none" xmlns="http://www.w3.org/2000/svg">
<g clip-path="url(#clip0_1651_9886)">
<path d="M25.3333 4.00041H16.6293C16.4231 4.00177 16.2193 3.95617 16.0333 3.86707L11.8253 1.75507C11.2699 1.47847 10.6579 1.33426 10.0373 1.33374H6.66667C4.89921 1.33586 3.20474 2.03892 1.95496 3.2887C0.705176 4.53848 0.00211714 6.23295 0 8.00041L0 24.0004C0.00211714 25.7679 0.705176 27.4623 1.95496 28.7121C3.20474 29.9619 4.89921 30.665 6.66667 30.6671H25.3333C27.1008 30.665 28.7953 29.9619 30.045 28.7121C31.2948 27.4623 31.9979 25.7679 32 24.0004V10.6671C31.9979 8.89961 31.2948 7.20515 30.045 5.95537C28.7953 4.70558 27.1008 4.00252 25.3333 4.00041ZM6.66667 4.00041H10.0373C10.2435 3.99905 10.4474 4.04464 10.6333 4.13374L14.8413 6.23907C15.3963 6.51799 16.0083 6.66449 16.6293 6.66707H25.3333C26.1307 6.66838 26.9095 6.90797 27.5697 7.35509C28.23 7.80221 28.7415 8.43646 29.0387 9.17641L2.66667 9.32574V8.00041C2.66667 6.93954 3.08809 5.92213 3.83824 5.17198C4.58839 4.42183 5.6058 4.00041 6.66667 4.00041ZM25.3333 28.0004H6.66667C5.6058 28.0004 4.58839 27.579 3.83824 26.8288C3.08809 26.0787 2.66667 25.0613 2.66667 24.0004V11.9924L29.3333 11.8417V24.0004C29.3333 25.0613 28.9119 26.0787 28.1618 26.8288C27.4116 27.579 26.3942 28.0004 25.3333 28.0004Z" fill="#0074E5"/>
</g>
<defs>
<clipPath id="clip0_1651_9886">
<rect width="32" height="32" fill="white"/>
</clipPath>
</defs>
</svg>
