<svg width="45" height="45" viewBox="0 0 45 45" fill="none" xmlns="http://www.w3.org/2000/svg">
<rect width="45" height="45" rx="8" fill="#9747FF"/>
<g clip-path="url(#clip0_2119_5915)">
<path d="M19 24H25C25.2652 24 25.5196 23.8947 25.7071 23.7071C25.8946 23.5196 26 23.2652 26 23C26 22.7348 25.8946 22.4804 25.7071 22.2929C25.5196 22.1054 25.2652 22 25 22H19C18.7348 22 18.4804 22.1054 18.2929 22.2929C18.1054 22.4804 18 22.7348 18 23C18 23.2652 18.1054 23.5196 18.2929 23.7071C18.4804 23.8947 18.7348 24 19 24V24Z" fill="white"/>
<path d="M29 10H15C13.6744 10.0016 12.4036 10.5289 11.4662 11.4662C10.5289 12.4036 10.0016 13.6744 10 15L10 16C10.0003 16.4217 10.0895 16.8387 10.2618 17.2236C10.4341 17.6086 10.6857 17.9528 11 18.234V29C11.0016 30.3256 11.5289 31.5964 12.4662 32.5338C13.4036 33.4711 14.6744 33.9984 16 34H28C29.3256 33.9984 30.5964 33.4711 31.5338 32.5338C32.4711 31.5964 32.9984 30.3256 33 29V18.234C33.3143 17.9528 33.5659 17.6086 33.7382 17.2236C33.9105 16.8387 33.9997 16.4217 34 16V15C33.9984 13.6744 33.4711 12.4036 32.5338 11.4662C31.5964 10.5289 30.3256 10.0016 29 10V10ZM12 15C12 14.2044 12.3161 13.4413 12.8787 12.8787C13.4413 12.3161 14.2044 12 15 12H29C29.7956 12 30.5587 12.3161 31.1213 12.8787C31.6839 13.4413 32 14.2044 32 15V16C32 16.2652 31.8946 16.5196 31.7071 16.7071C31.5196 16.8946 31.2652 17 31 17H13C12.7348 17 12.4804 16.8946 12.2929 16.7071C12.1054 16.5196 12 16.2652 12 16V15ZM31 29C31 29.7956 30.6839 30.5587 30.1213 31.1213C29.5587 31.6839 28.7956 32 28 32H16C15.2044 32 14.4413 31.6839 13.8787 31.1213C13.3161 30.5587 13 29.7956 13 29V19H31V29Z" fill="white"/>
</g>
<defs>
<clipPath id="clip0_2119_5915">
<rect width="24" height="24" fill="white" transform="translate(10 10)"/>
</clipPath>
</defs>
</svg>
