<svg width="45" height="45" viewBox="0 0 45 45" fill="none" xmlns="http://www.w3.org/2000/svg">
<rect width="45" height="45" rx="8" fill="#9747FF"/>
<g clip-path="url(#clip0_2419_5722)">
<path d="M26 17C26.2652 17 26.5196 17.1054 26.7071 17.2929C26.8946 17.4804 27 17.7348 27 18C27 18.2652 26.8946 18.5196 26.7071 18.7071C26.5196 18.8946 26.2652 19 26 19H18C17.7348 19 17.4804 18.8946 17.2929 18.7071C17.1054 18.5196 17 18.2652 17 18C17 17.7348 17.1054 17.4804 17.2929 17.2929C17.4804 17.1054 17.7348 17 18 17H26ZM33.707 34.707C33.5195 34.8945 33.2652 34.9998 33 34.9998C32.7348 34.9998 32.4805 34.8945 32.293 34.707L29.886 32.3C29.1732 32.755 28.3456 32.9977 27.5 33C26.61 33 25.74 32.7361 24.9999 32.2416C24.2599 31.7471 23.6831 31.0443 23.3425 30.2221C23.0019 29.3998 22.9128 28.495 23.0865 27.6221C23.2601 26.7492 23.6887 25.9474 24.318 25.318C24.9474 24.6887 25.7492 24.2601 26.6221 24.0865C27.495 23.9128 28.3998 24.0019 29.2221 24.3425C30.0443 24.6831 30.7471 25.2599 31.2416 25.9999C31.7361 26.74 32 27.61 32 28.5C31.9977 29.3456 31.755 30.1732 31.3 30.886L33.707 33.293C33.8945 33.4805 33.9998 33.7348 33.9998 34C33.9998 34.2652 33.8945 34.5195 33.707 34.707ZM27.5 31C27.9945 31 28.4778 30.8534 28.8889 30.5787C29.3 30.304 29.6205 29.9135 29.8097 29.4567C29.9989 28.9999 30.0484 28.4972 29.952 28.0123C29.8555 27.5273 29.6174 27.0819 29.2678 26.7322C28.9181 26.3826 28.4727 26.1445 27.9877 26.048C27.5028 25.9516 27.0001 26.0011 26.5433 26.1903C26.0865 26.3795 25.696 26.7 25.4213 27.1111C25.1466 27.5222 25 28.0055 25 28.5C25 29.163 25.2634 29.7989 25.7322 30.2678C26.2011 30.7366 26.837 31 27.5 31ZM23 33H17C16.2044 33 15.4413 32.6839 14.8787 32.1213C14.3161 31.5587 14 30.7956 14 30V16C14 15.2044 14.3161 14.4413 14.8787 13.8787C15.4413 13.3161 16.2044 13 17 13H29C29.2652 13 29.5196 13.1054 29.7071 13.2929C29.8946 13.4804 30 13.7348 30 14V22C30 22.2652 30.1054 22.5196 30.2929 22.7071C30.4804 22.8946 30.7348 23 31 23C31.2652 23 31.5196 22.8946 31.7071 22.7071C31.8946 22.5196 32 22.2652 32 22V14C32 13.2044 31.6839 12.4413 31.1213 11.8787C30.5587 11.3161 29.7956 11 29 11H17C15.6744 11.0016 14.4036 11.5289 13.4662 12.4662C12.5289 13.4036 12.0016 14.6744 12 16V30C12.0016 31.3256 12.5289 32.5964 13.4662 33.5338C14.4036 34.4711 15.6744 34.9984 17 35H23C23.2652 35 23.5196 34.8946 23.7071 34.7071C23.8946 34.5196 24 34.2652 24 34C24 33.7348 23.8946 33.4804 23.7071 33.2929C23.5196 33.1054 23.2652 33 23 33Z" fill="white"/>
</g>
<defs>
<clipPath id="clip0_2419_5722">
<rect width="24" height="24" fill="white" transform="translate(10 11)"/>
</clipPath>
</defs>
</svg>
