<svg width="45" height="45" viewBox="0 0 45 45" fill="none" xmlns="http://www.w3.org/2000/svg">
<rect width="45" height="45" rx="8" fill="#FF9950"/>
<g clip-path="url(#clip0_2119_5914)">
<path d="M15.972 32.2841C15.7534 32.284 15.5409 32.2123 15.3669 32.08C15.1929 31.9476 15.0671 31.762 15.0087 31.5513C14.9503 31.3407 14.9625 31.1167 15.0434 30.9137C15.1244 30.7106 15.2697 30.5397 15.457 30.4271C19 28.2991 19 23.7291 19 20.9991C19 20.2034 19.3161 19.4404 19.8787 18.8778C20.4413 18.3151 21.2044 17.9991 22 17.9991C22.7956 17.9991 23.5587 18.3151 24.1213 18.8778C24.6839 19.4404 25 20.2034 25 20.9991C25 21.2643 24.8946 21.5186 24.7071 21.7062C24.5196 21.8937 24.2652 21.9991 24 21.9991C23.7348 21.9991 23.4804 21.8937 23.2929 21.7062C23.1054 21.5186 23 21.2643 23 20.9991C23 20.7339 22.8946 20.4795 22.7071 20.292C22.5196 20.1044 22.2652 19.9991 22 19.9991C21.7348 19.9991 21.4804 20.1044 21.2929 20.292C21.1054 20.4795 21 20.7339 21 20.9991C21 23.9461 21 29.4331 16.486 32.1421C16.3307 32.2351 16.153 32.2841 15.972 32.2841V32.2841ZM20.935 33.7051C23.217 31.4051 24.55 28.1711 24.896 24.0841C24.9077 23.953 24.8933 23.8209 24.8538 23.6953C24.8143 23.5697 24.7504 23.4532 24.6658 23.3524C24.5811 23.2516 24.4774 23.1685 24.3606 23.1079C24.2438 23.0472 24.1161 23.0103 23.985 22.9991C23.8538 22.9856 23.7212 22.9987 23.5951 23.0376C23.4691 23.0764 23.3521 23.1403 23.2513 23.2253C23.1504 23.3103 23.0677 23.4147 23.008 23.5324C22.9483 23.65 22.913 23.7785 22.904 23.9101C22.593 27.5671 21.485 30.3101 19.516 32.2911C19.329 32.4792 19.2245 32.734 19.2253 32.9993C19.2261 33.2645 19.3323 33.5186 19.5205 33.7056C19.7087 33.8926 19.9634 33.9971 20.2287 33.9963C20.494 33.9954 20.748 33.8892 20.935 33.7011V33.7051ZM26.135 33.5191C26.7416 32.5112 27.2467 31.4457 27.643 30.3381C27.7258 30.0904 27.7085 29.8201 27.5946 29.585C27.4808 29.3499 27.2794 29.1687 27.0337 29.0802C26.788 28.9916 26.5174 29.0027 26.2797 29.1111C26.0421 29.2194 25.8562 29.4165 25.762 29.6601C25.4099 30.6421 24.9617 31.5871 24.424 32.4811C24.3558 32.5934 24.3105 32.7181 24.2905 32.848C24.2705 32.9778 24.2763 33.1104 24.3076 33.238C24.3388 33.3657 24.3949 33.4859 24.4726 33.5918C24.5503 33.6978 24.6482 33.7874 24.7605 33.8556C24.9874 33.9932 25.2597 34.0351 25.5174 33.972C25.6451 33.9407 25.7653 33.8847 25.8713 33.807C25.9772 33.7292 26.0668 33.6314 26.135 33.5191V33.5191ZM28.5 27.1901C28.8705 25.148 29.038 23.0742 29 20.9991C28.9991 19.5824 28.5683 18.1993 27.7646 17.0326C26.9609 15.866 25.8221 14.9706 24.4987 14.4649C23.1753 13.9592 21.7297 13.867 20.3528 14.2003C18.9758 14.5337 17.7325 15.277 16.787 16.3321C16.6949 16.4291 16.6232 16.5436 16.5762 16.6688C16.5291 16.794 16.5077 16.9273 16.5131 17.061C16.5185 17.1946 16.5507 17.3258 16.6077 17.4468C16.6647 17.5678 16.7454 17.6761 16.845 17.7654C16.9446 17.8546 17.0611 17.923 17.1876 17.9664C17.3141 18.0098 17.448 18.0274 17.5815 18.0181C17.7149 18.0089 17.8451 17.973 17.9644 17.9125C18.0837 17.852 18.1897 17.7682 18.276 17.6661C18.9513 16.9124 19.8394 16.3813 20.8229 16.143C21.8064 15.9048 22.8391 15.9706 23.7845 16.3318C24.7298 16.6929 25.5433 17.3325 26.1174 18.1658C26.6916 18.9992 26.9993 19.9871 27 20.9991C27.0369 22.9459 26.8821 24.8916 26.538 26.8081C26.4875 27.0682 26.5423 27.3378 26.6905 27.5576C26.8386 27.7773 27.0679 27.9293 27.328 27.9801C27.3915 27.9928 27.4562 27.9991 27.521 27.9991C27.7526 27.9985 27.9769 27.9175 28.1554 27.7699C28.334 27.6224 28.4558 27.4174 28.5 27.1901ZM17 20.9991C16.9997 20.72 17.0228 20.4413 17.069 20.1661C17.0989 20.0336 17.1014 19.8964 17.0765 19.7628C17.0516 19.6293 16.9997 19.5022 16.9241 19.3894C16.8485 19.2766 16.7506 19.1804 16.6366 19.1066C16.5225 19.0328 16.3946 18.9831 16.2607 18.9603C16.1268 18.9376 15.9896 18.9424 15.8576 18.9745C15.7256 19.0065 15.6015 19.0651 15.4929 19.1467C15.3843 19.2282 15.2935 19.3311 15.2259 19.4489C15.1583 19.5668 15.1155 19.6971 15.1 19.8321C15.034 20.2176 15.0005 20.608 15 20.9991C15 25.6441 13.654 27.9991 11 27.9991C10.7348 27.9991 10.4804 28.1044 10.2929 28.292C10.1054 28.4795 10 28.7339 10 28.9991C10 29.2643 10.1054 29.5186 10.2929 29.7062C10.4804 29.8937 10.7348 29.9991 11 29.9991C14.869 29.9991 17 26.7991 17 20.9991ZM30.7 33.4131C32.3457 29.4872 33.13 25.2539 33 20.9991C33.0046 19.338 32.6283 17.698 31.9 16.2051C31.8425 16.0869 31.7624 15.9812 31.6641 15.894C31.5658 15.8068 31.4512 15.7398 31.327 15.6968C31.2028 15.6539 31.0714 15.6358 30.9402 15.6437C30.809 15.6515 30.6807 15.6851 30.5625 15.7426C30.4443 15.8 30.3386 15.8802 30.2514 15.9785C30.1642 16.0768 30.0972 16.1913 30.0542 16.3155C30.0113 16.4397 29.9932 16.5712 30.0011 16.7024C30.0089 16.8335 30.0425 16.9619 30.1 17.0801C30.695 18.3006 31.0029 19.6412 31 20.9991C31.1259 24.9678 30.4035 28.9178 28.881 32.5851C28.8268 32.7048 28.7967 32.8341 28.7925 32.9655C28.7883 33.0969 28.8101 33.2278 28.8565 33.3507C28.9029 33.4737 28.9732 33.5863 29.0632 33.6821C29.1532 33.7779 29.2612 33.8551 29.381 33.9091C29.5105 33.9686 29.6514 33.9993 29.794 33.9991C29.9852 33.9983 30.1722 33.9426 30.3328 33.8388C30.4934 33.7349 30.6208 33.5872 30.7 33.4131V33.4131ZM13 23.9991V20.9991C13.0026 18.6129 13.9517 16.3253 15.639 14.638C17.3262 12.9508 19.6139 12.0017 22 11.9991C23.9484 11.9926 25.8452 12.6249 27.4 13.7991C27.6122 13.9582 27.8789 14.0265 28.1414 13.989C28.404 13.9515 28.6409 13.8112 28.8 13.5991C28.9591 13.3869 29.0275 13.1202 28.99 12.8577C28.9524 12.5951 28.8122 12.3582 28.6 12.1991C26.6994 10.7645 24.3812 9.99179 22 9.99907C19.0837 10.0025 16.2878 11.1625 14.2256 13.2247C12.1635 15.2869 11.0034 18.0828 11 20.9991V23.9991C11 24.2643 11.1054 24.5186 11.2929 24.7062C11.4804 24.8937 11.7348 24.9991 12 24.9991C12.2652 24.9991 12.5196 24.8937 12.7071 24.7062C12.8946 24.5186 13 24.2643 13 23.9991Z" fill="white"/>
</g>
<defs>
<clipPath id="clip0_2119_5914">
<rect width="24" height="24" fill="white" transform="translate(10 10)"/>
</clipPath>
</defs>
</svg>
