<svg width="18" height="19" viewBox="0 0 18 19" fill="none" xmlns="http://www.w3.org/2000/svg">
<g clip-path="url(#clip0_1651_9852)">
<path d="M18 7.25C18.0017 6.83711 17.8898 6.43171 17.6764 6.0782C17.4631 5.72469 17.1566 5.43669 16.7906 5.24574C16.4245 5.0548 16.0129 4.96827 15.6009 4.99563C15.1889 5.023 14.7924 5.1632 14.4548 5.40088C14.1172 5.63856 13.8515 5.96456 13.6868 6.34319C13.5221 6.72181 13.4647 7.13845 13.521 7.54748C13.5773 7.95652 13.7451 8.34218 14.006 8.66222C14.2668 8.98227 14.6107 9.22437 15 9.362V12.5C15 13.6935 14.5259 14.8381 13.682 15.682C12.8381 16.5259 11.6935 17 10.5 17C9.30653 17 8.16193 16.5259 7.31802 15.682C6.47411 14.8381 6 13.6935 6 12.5V12.44C7.24806 12.2589 8.38936 11.635 9.21552 10.6822C10.0417 9.72932 10.4976 8.51113 10.5 7.25V4.25C10.4988 3.2558 10.1033 2.30267 9.40034 1.59966C8.69733 0.896661 7.7442 0.501191 6.75 0.5C6.55109 0.5 6.36032 0.579018 6.21967 0.71967C6.07902 0.860322 6 1.05109 6 1.25C6 1.44891 6.07902 1.63968 6.21967 1.78033C6.36032 1.92098 6.55109 2 6.75 2C7.34674 2 7.91903 2.23705 8.34099 2.65901C8.76295 3.08097 9 3.65326 9 4.25V7.25C9 8.24456 8.60491 9.19839 7.90165 9.90165C7.19839 10.6049 6.24456 11 5.25 11C4.25544 11 3.30161 10.6049 2.59835 9.90165C1.89509 9.19839 1.5 8.24456 1.5 7.25V4.25C1.5 3.65326 1.73705 3.08097 2.15901 2.65901C2.58097 2.23705 3.15326 2 3.75 2C3.94891 2 4.13968 1.92098 4.28033 1.78033C4.42098 1.63968 4.5 1.44891 4.5 1.25C4.5 1.05109 4.42098 0.860322 4.28033 0.71967C4.13968 0.579018 3.94891 0.5 3.75 0.5C2.7558 0.501191 1.80267 0.896661 1.09966 1.59966C0.396661 2.30267 0.00119089 3.2558 0 4.25L0 7.25C0.00241196 8.51113 0.458319 9.72932 1.28448 10.6822C2.11064 11.635 3.25194 12.2589 4.5 12.44V12.5C4.5 14.0913 5.13214 15.6174 6.25736 16.7426C7.38258 17.8679 8.9087 18.5 10.5 18.5C12.0913 18.5 13.6174 17.8679 14.7426 16.7426C15.8679 15.6174 16.5 14.0913 16.5 12.5V9.362C16.9372 9.20744 17.3159 8.92158 17.5844 8.54352C17.8529 8.16547 17.9981 7.7137 18 7.25ZM15.75 8C15.6017 8 15.4567 7.95601 15.3333 7.8736C15.21 7.79119 15.1139 7.67406 15.0571 7.53701C15.0003 7.39997 14.9855 7.24917 15.0144 7.10368C15.0434 6.9582 15.1148 6.82456 15.2197 6.71967C15.3246 6.61478 15.4582 6.54335 15.6037 6.51441C15.7492 6.48547 15.9 6.50032 16.037 6.55709C16.1741 6.61386 16.2912 6.70999 16.3736 6.83332C16.456 6.95666 16.5 7.10166 16.5 7.25C16.5 7.44891 16.421 7.63968 16.2803 7.78033C16.1397 7.92098 15.9489 8 15.75 8Z" fill="#0074E5"/>
</g>
<defs>
<clipPath id="clip0_1651_9852">
<rect width="18" height="18" fill="white" transform="translate(0 0.5)"/>
</clipPath>
</defs>
</svg>
