<svg width="16" height="16" viewBox="0 0 16 16" fill="none" xmlns="http://www.w3.org/2000/svg">
<g clip-path="url(#clip0_1651_9901)">
<path d="M14.6657 0H11.999C11.8222 0 11.6527 0.0702379 11.5276 0.195262C11.4026 0.320286 11.3324 0.489856 11.3324 0.666667C11.3324 0.843478 11.4026 1.01305 11.5276 1.13807C11.6527 1.2631 11.8222 1.33333 11.999 1.33333H13.723L12.123 2.93333C11.3934 2.38232 10.5169 2.05983 9.60407 2.00655C8.69129 1.95328 7.78318 2.17161 6.99438 2.634C6.39986 2.29047 5.73677 2.08258 5.05253 2.02521C4.3683 1.96784 3.67985 2.06241 3.03643 2.30215C2.39301 2.54189 1.81052 2.92087 1.33066 3.41198C0.850789 3.9031 0.485398 4.4942 0.260627 5.143C0.035855 5.7918 -0.0427413 6.48226 0.0304611 7.16498C0.103663 7.8477 0.326855 8.50581 0.684067 9.09221C1.04128 9.67861 1.52368 10.1788 2.09676 10.557C2.66984 10.9352 3.31943 11.1821 3.99905 11.28V12.6667H2.66571C2.4889 12.6667 2.31933 12.7369 2.19431 12.8619C2.06928 12.987 1.99905 13.1565 1.99905 13.3333C1.99905 13.5101 2.06928 13.6797 2.19431 13.8047C2.31933 13.9298 2.4889 14 2.66571 14H3.99905V15.3333C3.99905 15.5101 4.06928 15.6797 4.19431 15.8047C4.31933 15.9298 4.4889 16 4.66571 16C4.84252 16 5.01209 15.9298 5.13712 15.8047C5.26214 15.6797 5.33238 15.5101 5.33238 15.3333V14H6.66571C6.84252 14 7.01209 13.9298 7.13712 13.8047C7.26214 13.6797 7.33238 13.5101 7.33238 13.3333C7.33238 13.1565 7.26214 12.987 7.13712 12.8619C7.01209 12.7369 6.84252 12.6667 6.66571 12.6667H5.33238V11.2847C5.91842 11.1973 6.4822 10.9982 6.99305 10.698C7.92185 11.2413 9.01011 11.4461 10.0729 11.2778C11.1356 11.1095 12.1074 10.5784 12.8229 9.7748C13.5384 8.97116 13.9535 7.94455 13.9978 6.86945C14.0421 5.79435 13.7127 4.73708 13.0657 3.87733L14.6657 2.27733V4C14.6657 4.17681 14.736 4.34638 14.861 4.4714C14.986 4.59643 15.1556 4.66667 15.3324 4.66667C15.5092 4.66667 15.6788 4.59643 15.8038 4.4714C15.9288 4.34638 15.999 4.17681 15.999 4V1.33333C15.999 0.979711 15.8586 0.640573 15.6085 0.390524C15.3585 0.140476 15.0193 0 14.6657 0V0ZM1.33238 6.66667C1.32922 6.12523 1.45877 5.59127 1.7097 5.11148C1.96062 4.6317 2.32528 4.2207 2.77179 3.91443C3.21829 3.60817 3.73303 3.41597 4.27099 3.35465C4.80895 3.29333 5.35374 3.36475 5.85771 3.56267C5.09034 4.41441 4.66567 5.52022 4.66567 6.66667C4.66567 7.81311 5.09034 8.91892 5.85771 9.77067C5.35374 9.96859 4.80895 10.04 4.27099 9.97868C3.73303 9.91736 3.21829 9.72516 2.77179 9.4189C2.32528 9.11264 1.96062 8.70164 1.7097 8.22185C1.45877 7.74206 1.32922 7.2081 1.33238 6.66667ZM9.33238 10C8.67311 10 8.02864 9.8045 7.48048 9.43823C6.93232 9.07196 6.50507 8.55136 6.25278 7.94228C6.00049 7.33319 5.93448 6.66297 6.0631 6.01637C6.19171 5.36976 6.50918 4.77582 6.97536 4.30964C7.44153 3.84347 8.03548 3.526 8.68208 3.39738C9.32868 3.26877 9.9989 3.33478 10.608 3.58707C11.2171 3.83936 11.7377 4.2666 12.1039 4.81477C12.4702 5.36293 12.6657 6.0074 12.6657 6.66667C12.6647 7.5504 12.3131 8.39763 11.6882 9.02252C11.0633 9.64741 10.2161 9.99894 9.33238 10Z" fill="#848D9F"/>
</g>
<defs>
<clipPath id="clip0_1651_9901">
<rect width="16" height="16" fill="white"/>
</clipPath>
</defs>
</svg>
