<svg width="18" height="18" viewBox="0 0 18 18" fill="none" xmlns="http://www.w3.org/2000/svg">
<g clip-path="url(#clip0_1043_2821)">
<path d="M16.5431 3.92236L11.0126 1.28761C9.79525 0.560439 8.28001 0.547536 7.05039 1.25386L1.45766 3.92236C1.43667 3.93287 1.41491 3.94412 1.39466 3.95611C0.0674441 4.71499 -0.393314 6.40611 0.365569 7.73333C0.622807 8.18326 1.00119 8.55191 1.45766 8.79737L3.00042 9.53238V13.2074C3.00134 14.8507 4.07062 16.3025 5.63967 16.7909C6.73159 17.1068 7.8638 17.2614 9.00044 17.2499C10.1369 17.2626 11.2691 17.1093 12.3612 16.7946C13.9303 16.3063 14.9995 14.8544 15.0004 13.2111V9.53087L16.5005 8.81386V14.9998C16.5005 15.4141 16.8362 15.7498 17.2504 15.7498C17.6647 15.7498 18.0004 15.4141 18.0004 14.9998V5.99985C18.0054 5.11915 17.31 4.30556 16.5431 3.92236ZM13.5004 13.2111C13.5008 14.1941 12.8631 15.0635 11.9254 15.3584C10.9746 15.6301 9.98924 15.7619 9.0004 15.7499C8.01156 15.7619 7.02624 15.6301 6.0754 15.3584C5.13775 15.0635 4.50001 14.1941 4.5004 13.2111V10.2471L6.98816 11.4322C7.60199 11.7967 8.30304 11.9882 9.01692 11.9864C9.69642 11.9912 10.3645 11.8113 10.9497 11.4659L13.5004 10.2471V13.2111ZM15.9004 7.44361L10.2439 10.1436C9.45522 10.6029 8.47763 10.5898 7.70141 10.1099L2.16715 7.47736C1.55026 7.14471 1.31985 6.37497 1.6525 5.75811C1.765 5.5495 1.93368 5.37656 2.13941 5.25886L7.76065 2.57387C8.54959 2.11565 9.52665 2.12862 10.3032 2.60762L15.8336 5.24237C16.2404 5.46822 16.4948 5.8947 16.5004 6.35988C16.5011 6.80053 16.2742 7.21031 15.9004 7.44361Z" fill="#848D9F"/>
</g>
<defs>
<clipPath id="clip0_1043_2821">
<rect width="18" height="18" fill="white"/>
</clipPath>
</defs>
</svg>
