<svg width="18" height="18" viewBox="0 0 18 18" fill="none" xmlns="http://www.w3.org/2000/svg">
<g clip-path="url(#clip0_1193_11741)">
<path d="M14.9618 4.15251L12.3488 1.53801C11.8622 1.04911 11.2836 0.661504 10.6464 0.3976C10.0092 0.133696 9.32596 -0.00126963 8.63625 0.000505568H5.25C4.2558 0.00169646 3.30267 0.397167 2.59966 1.10017C1.89666 1.80317 1.50119 2.75631 1.5 3.75051V14.2505C1.50119 15.2447 1.89666 16.1978 2.59966 16.9008C3.30267 17.6038 4.2558 17.9993 5.25 18.0005H12.75C13.7442 17.9993 14.6973 17.6038 15.4003 16.9008C16.1033 16.1978 16.4988 15.2447 16.5 14.2505V7.86425C16.5019 7.17457 16.3669 6.49137 16.1028 5.85424C15.8388 5.2171 15.4509 4.63869 14.9618 4.15251ZM13.9012 5.21301C14.1303 5.44861 14.3272 5.7134 14.487 6.00051H11.25C11.0511 6.00051 10.8603 5.92149 10.7197 5.78084C10.579 5.64018 10.5 5.44942 10.5 5.25051V2.01351C10.7872 2.1732 11.0522 2.36988 11.2882 2.59851L13.9012 5.21301ZM15 14.2505C15 14.8472 14.7629 15.4195 14.341 15.8415C13.919 16.2635 13.3467 16.5005 12.75 16.5005H5.25C4.65326 16.5005 4.08097 16.2635 3.65901 15.8415C3.23705 15.4195 3 14.8472 3 14.2505V3.75051C3 3.15377 3.23705 2.58147 3.65901 2.15952C4.08097 1.73756 4.65326 1.50051 5.25 1.50051H8.63625C8.75925 1.50051 8.8785 1.52451 9 1.53576V5.25051C9 5.84724 9.23705 6.41954 9.65901 6.8415C10.081 7.26345 10.6533 7.50051 11.25 7.50051H14.9647C14.976 7.62201 15 7.74051 15 7.86425V14.2505Z" fill="#848D9F"/>
</g>
<defs>
<clipPath id="clip0_1193_11741">
<rect width="18" height="18" fill="white"/>
</clipPath>
</defs>
</svg>
