<svg width="15" height="14" viewBox="0 0 15 14" fill="none" xmlns="http://www.w3.org/2000/svg">
<g clip-path="url(#clip0_507_1968)">
<path d="M12.1668 4.66661C12.1685 3.91111 11.9867 3.16651 11.637 2.49677C11.2874 1.82704 10.7804 1.25221 10.1596 0.821669C9.53876 0.391127 8.8227 0.11775 8.07291 0.025027C7.32312 -0.0676961 6.56202 0.0230073 5.85502 0.289344C5.14803 0.55568 4.51626 0.989686 4.01401 1.55407C3.51176 2.11845 3.15405 2.79634 2.97161 3.52948C2.78917 4.26262 2.78745 5.0291 2.96661 5.76305C3.14576 6.497 3.50044 7.17648 4.00015 7.74311V12.5416C4.00015 12.8163 4.07774 13.0855 4.224 13.318C4.37025 13.5506 4.57922 13.7371 4.82683 13.8561C5.07444 13.9751 5.35063 14.0217 5.62358 13.9906C5.89654 13.9595 6.15515 13.8519 6.36965 13.6803L7.31815 12.9219C7.36983 12.8807 7.43401 12.8582 7.50015 12.8582C7.56629 12.8582 7.63047 12.8807 7.68215 12.9219L8.63065 13.6803C8.84515 13.8519 9.10377 13.9595 9.37672 13.9906C9.64967 14.0217 9.92586 13.9751 10.1735 13.8561C10.4211 13.7371 10.6301 13.5506 10.7763 13.318C10.9226 13.0855 11.0002 12.8163 11.0002 12.5416V7.74311C11.7517 6.89448 12.1666 5.80017 12.1668 4.66661ZM7.50015 1.16661C8.19239 1.16661 8.86908 1.37188 9.44465 1.75647C10.0202 2.14105 10.4688 2.68768 10.7337 3.32722C10.9986 3.96676 11.0679 4.67049 10.9329 5.34943C10.7979 6.02836 10.4645 6.652 9.97503 7.14148C9.48554 7.63097 8.8619 7.96431 8.18297 8.09936C7.50403 8.23441 6.8003 8.1651 6.16076 7.90019C5.52122 7.63528 4.97459 7.18668 4.59001 6.61111C4.20542 6.03553 4.00015 5.35885 4.00015 4.66661C4.00108 3.73864 4.37012 2.84894 5.0263 2.19276C5.68248 1.53658 6.57218 1.16754 7.50015 1.16661ZM9.6684 12.8029C9.61905 12.8274 9.56369 12.8371 9.50895 12.8309C9.45422 12.8247 9.40244 12.8028 9.35982 12.7679L8.41132 12.0096C8.15316 11.8017 7.83164 11.6883 7.50015 11.6883C7.16866 11.6883 6.84714 11.8017 6.58898 12.0096L5.64107 12.7679C5.59827 12.8023 5.54664 12.8239 5.49212 12.8302C5.43759 12.8365 5.38239 12.8274 5.33286 12.8037C5.28332 12.7801 5.24146 12.7429 5.21209 12.6966C5.18272 12.6502 5.16703 12.5965 5.16682 12.5416V8.70211C5.87497 9.11544 6.6802 9.33325 7.50015 9.33325C8.3201 9.33325 9.12534 9.11544 9.83348 8.70211V12.5416C9.83413 12.5965 9.81889 12.6503 9.7896 12.6967C9.7603 12.7431 9.71821 12.78 9.6684 12.8029Z" fill="#0074E5"/>
</g>
<defs>
<clipPath id="clip0_507_1968">
<rect width="14" height="14" fill="white" transform="translate(0.5)"/>
</clipPath>
</defs>
</svg>
