<svg width="18" height="18" viewBox="0 0 18 18" fill="none" xmlns="http://www.w3.org/2000/svg">
<g clip-path="url(#clip0_306_3928)">
<path d="M18 9C18 11.3869 17.0518 13.6761 15.364 15.364C13.6761 17.0518 11.3869 18 9 18C6.61305 18 4.32387 17.0518 2.63604 15.364C0.948211 13.6761 0 11.3869 0 9C0 8.80109 0.0790176 8.61032 0.21967 8.46967C0.360322 8.32902 0.551088 8.25 0.75 8.25C0.948912 8.25 1.13968 8.32902 1.28033 8.46967C1.42098 8.61032 1.5 8.80109 1.5 9C1.5 10.4834 1.93987 11.9334 2.76398 13.1668C3.58809 14.4001 4.75943 15.3614 6.12987 15.9291C7.50032 16.4968 9.00832 16.6453 10.4632 16.3559C11.918 16.0665 13.2544 15.3522 14.3033 14.3033C15.3522 13.2544 16.0665 11.918 16.3559 10.4632C16.6453 9.00832 16.4968 7.50032 15.9291 6.12987C15.3614 4.75943 14.4001 3.58809 13.1668 2.76398C11.9334 1.93987 10.4834 1.5 9 1.5C8.80109 1.5 8.61032 1.42098 8.46967 1.28033C8.32902 1.13968 8.25 0.948912 8.25 0.75C8.25 0.551088 8.32902 0.360322 8.46967 0.21967C8.61032 0.0790176 8.80109 0 9 0C11.3862 0.00258081 13.6738 0.951621 15.3611 2.63889C17.0484 4.32616 17.9974 6.61384 18 9ZM7.70775 8.25H6C5.80109 8.25 5.61032 8.32902 5.46967 8.46967C5.32902 8.61032 5.25 8.80109 5.25 9C5.25 9.19891 5.32902 9.38968 5.46967 9.53033C5.61032 9.67098 5.80109 9.75 6 9.75H7.70775C7.82229 9.94892 7.98108 10.1188 8.17182 10.2465C8.36256 10.3742 8.58014 10.4563 8.8077 10.4864C9.03525 10.5164 9.26668 10.4938 9.48406 10.42C9.70144 10.3463 9.89893 10.2236 10.0612 10.0612C10.2236 9.89893 10.3463 9.70144 10.42 9.48406C10.4938 9.26668 10.5164 9.03525 10.4864 8.8077C10.4563 8.58014 10.3742 8.36256 10.2465 8.17182C10.1188 7.98108 9.94892 7.82229 9.75 7.70775V5.25C9.75 5.05109 9.67098 4.86032 9.53033 4.71967C9.38968 4.57902 9.19891 4.5 9 4.5C8.80109 4.5 8.61032 4.57902 8.46967 4.71967C8.32902 4.86032 8.25 5.05109 8.25 5.25V7.70775C8.02532 7.83846 7.83846 8.02532 7.70775 8.25ZM1.37025 6.588C1.51859 6.588 1.66359 6.54401 1.78693 6.4616C1.91026 6.37919 2.00639 6.26206 2.06316 6.12501C2.11993 5.98797 2.13478 5.83717 2.10584 5.69168C2.0769 5.5462 2.00547 5.41256 1.90058 5.30767C1.79569 5.20278 1.66205 5.13135 1.51657 5.10241C1.37108 5.07347 1.22028 5.08832 1.08324 5.14509C0.946193 5.20186 0.829059 5.29799 0.746648 5.42132C0.664237 5.54466 0.62025 5.68966 0.62025 5.838C0.62025 6.03691 0.699268 6.22768 0.83992 6.36833C0.980572 6.50898 1.17134 6.588 1.37025 6.588ZM3.16575 3.90525C3.31409 3.90525 3.45909 3.86126 3.58243 3.77885C3.70576 3.69644 3.80189 3.57931 3.85866 3.44226C3.91543 3.30522 3.93028 3.15442 3.90134 3.00893C3.8724 2.86345 3.80097 2.72981 3.69608 2.62492C3.59119 2.52003 3.45755 2.4486 3.31207 2.41966C3.16658 2.39072 3.01578 2.40557 2.87874 2.46234C2.74169 2.51911 2.62456 2.61524 2.54215 2.73857C2.45974 2.86191 2.41575 3.00691 2.41575 3.15525C2.41575 3.35416 2.49477 3.54493 2.63542 3.68558C2.77607 3.82623 2.96684 3.90525 3.16575 3.90525ZM5.83425 2.13075C5.98259 2.13075 6.12759 2.08676 6.25093 2.00435C6.37426 1.92194 6.47039 1.80481 6.52716 1.66776C6.58393 1.53072 6.59878 1.37992 6.56984 1.23443C6.5409 1.08895 6.46947 0.955309 6.36458 0.85042C6.25969 0.745531 6.12605 0.6741 5.98057 0.645161C5.83508 0.616222 5.68428 0.631075 5.54724 0.68784C5.41019 0.744606 5.29306 0.840735 5.21065 0.964072C5.12824 1.08741 5.08425 1.23241 5.08425 1.38075C5.08425 1.57966 5.16327 1.77043 5.30392 1.91108C5.44457 2.05173 5.63534 2.13075 5.83425 2.13075Z" fill="#0074E5"/>
</g>
<defs>
<clipPath id="clip0_306_3928">
<rect width="18" height="18" fill="white"/>
</clipPath>
</defs>
</svg>
