<svg width="18" height="18" viewBox="0 0 18 18" fill="none" xmlns="http://www.w3.org/2000/svg">
<g clip-path="url(#clip0_1983_6111)">
<path d="M6.75 9C7.64002 9 8.51005 8.73608 9.25007 8.24162C9.99009 7.74715 10.5669 7.04435 10.9075 6.22208C11.2481 5.39981 11.3372 4.49501 11.1635 3.6221C10.9899 2.74918 10.5613 1.94736 9.93198 1.31802C9.30264 0.688685 8.50082 0.260102 7.62791 0.0864683C6.75499 -0.0871652 5.85019 0.00194979 5.02792 0.342544C4.20566 0.683138 3.50285 1.25991 3.00839 1.99994C2.51392 2.73996 2.25 3.60999 2.25 4.5C2.25119 5.69311 2.72568 6.83701 3.56934 7.68067C4.41299 8.52432 5.55689 8.99881 6.75 9ZM6.75 1.5C7.34334 1.5 7.92336 1.67595 8.41671 2.00559C8.91006 2.33524 9.29458 2.80377 9.52164 3.35195C9.7487 3.90013 9.80811 4.50333 9.69236 5.08527C9.5766 5.66722 9.29088 6.20177 8.87132 6.62132C8.45176 7.04088 7.91721 7.3266 7.33527 7.44236C6.75333 7.55811 6.15013 7.4987 5.60195 7.27164C5.05377 7.04458 4.58524 6.66006 4.25559 6.16671C3.92595 5.67337 3.75 5.09335 3.75 4.5C3.75 3.70435 4.06607 2.94129 4.62868 2.37868C5.19129 1.81607 5.95435 1.5 6.75 1.5V1.5Z" fill="#0074E5"/>
<path d="M6.75 10.5C4.96046 10.5022 3.24484 11.214 1.97944 12.4794C0.714043 13.7448 0.00218322 15.4604 0 17.25C0 17.4489 0.0790176 17.6397 0.21967 17.7803C0.360322 17.921 0.551088 18 0.75 18C0.948912 18 1.13968 17.921 1.28033 17.7803C1.42098 17.6397 1.5 17.4489 1.5 17.25C1.5 15.8576 2.05312 14.5222 3.03769 13.5377C4.02226 12.5531 5.35761 12 6.75 12C8.14239 12 9.47774 12.5531 10.4623 13.5377C11.4469 14.5222 12 15.8576 12 17.25C12 17.4489 12.079 17.6397 12.2197 17.7803C12.3603 17.921 12.5511 18 12.75 18C12.9489 18 13.1397 17.921 13.2803 17.7803C13.421 17.6397 13.5 17.4489 13.5 17.25C13.4978 15.4604 12.786 13.7448 11.5206 12.4794C10.2552 11.214 8.53954 10.5022 6.75 10.5V10.5Z" fill="#0074E5"/>
<path d="M16.4999 5.90625C16.0825 5.92704 15.6904 6.11232 15.4092 6.42155C15.1281 6.73078 14.9809 7.13877 14.9999 7.55625C15.0189 7.13877 14.8717 6.73078 14.5906 6.42155C14.3095 6.11232 13.9173 5.92704 13.4999 5.90625C13.0825 5.92704 12.6904 6.11232 12.4093 6.42155C12.1281 6.73078 11.981 7.13877 11.9999 7.55625C11.9999 8.85375 13.6919 10.374 14.5349 11.0505C14.6669 11.1562 14.8309 11.2137 14.9999 11.2137C15.1689 11.2137 15.333 11.1562 15.4649 11.0505C16.3079 10.3755 17.9999 8.85375 17.9999 7.55625C18.0189 7.13877 17.8717 6.73078 17.5906 6.42155C17.3095 6.11232 16.9173 5.92704 16.4999 5.90625V5.90625Z" fill="#0074E5"/>
</g>
<defs>
<clipPath id="clip0_1983_6111">
<rect width="18" height="18" fill="white"/>
</clipPath>
</defs>
</svg>
