<svg width="18" height="18" viewBox="0 0 18 18" fill="none" xmlns="http://www.w3.org/2000/svg">
<g clip-path="url(#clip0_1043_3264)">
<path d="M6.75 8.99994C7.64002 8.99994 8.51005 8.73602 9.25007 8.24155C9.99009 7.74709 10.5669 7.04428 10.9075 6.22202C11.2481 5.39975 11.3372 4.49495 11.1635 3.62203C10.9899 2.74912 10.5613 1.9473 9.93198 1.31796C9.30264 0.688624 8.50082 0.260041 7.62791 0.0864072C6.75499 -0.0872263 5.85019 0.00188875 5.02792 0.342483C4.20566 0.683077 3.50285 1.25985 3.00839 1.99987C2.51392 2.7399 2.25 3.60993 2.25 4.49994C2.25119 5.69305 2.72568 6.83695 3.56934 7.68061C4.41299 8.52426 5.55689 8.99875 6.75 8.99994ZM6.75 1.49994C7.34334 1.49994 7.92336 1.67589 8.41671 2.00553C8.91006 2.33518 9.29458 2.80371 9.52164 3.35189C9.7487 3.90007 9.80811 4.50327 9.69236 5.08521C9.5766 5.66715 9.29088 6.2017 8.87132 6.62126C8.45176 7.04082 7.91721 7.32654 7.33527 7.4423C6.75333 7.55805 6.15013 7.49864 5.60195 7.27158C5.05377 7.04452 4.58524 6.66 4.25559 6.16665C3.92595 5.6733 3.75 5.09329 3.75 4.49994C3.75 3.70429 4.06607 2.94123 4.62868 2.37862C5.19129 1.81601 5.95435 1.49994 6.75 1.49994Z" fill="#848D9F"/>
<path d="M6.75 10.4998C4.96046 10.5019 3.24484 11.2138 1.97944 12.4792C0.714043 13.7446 0.00218322 15.4602 0 17.2497C0 17.4486 0.0790176 17.6394 0.21967 17.7801C0.360322 17.9207 0.551088 17.9997 0.75 17.9997C0.948912 17.9997 1.13968 17.9207 1.28033 17.7801C1.42098 17.6394 1.5 17.4486 1.5 17.2497C1.5 15.8574 2.05312 14.522 3.03769 13.5374C4.02226 12.5529 5.35761 11.9998 6.75 11.9998C8.14239 11.9998 9.47774 12.5529 10.4623 13.5374C11.4469 14.522 12 15.8574 12 17.2497C12 17.4486 12.079 17.6394 12.2197 17.7801C12.3603 17.9207 12.5511 17.9997 12.75 17.9997C12.9489 17.9997 13.1397 17.9207 13.2803 17.7801C13.421 17.6394 13.5 17.4486 13.5 17.2497C13.4978 15.4602 12.786 13.7446 11.5206 12.4792C10.2552 11.2138 8.53954 10.5019 6.75 10.4998Z" fill="#848D9F"/>
<path d="M16.4997 5.90625C16.0823 5.92704 15.6901 6.11232 15.409 6.42155C15.1279 6.73078 14.9807 7.13877 14.9997 7.55625C15.0186 7.13877 14.8714 6.73078 14.5903 6.42155C14.3092 6.11232 13.9171 5.92704 13.4997 5.90625C13.0823 5.92704 12.6901 6.11232 12.409 6.42155C12.1279 6.73078 11.9807 7.13877 11.9997 7.55625C11.9997 8.85375 13.6917 10.374 14.5347 11.0505C14.6666 11.1562 14.8306 11.2137 14.9997 11.2137C15.1687 11.2137 15.3327 11.1562 15.4647 11.0505C16.3077 10.3755 17.9997 8.85375 17.9997 7.55625C18.0186 7.13877 17.8714 6.73078 17.5903 6.42155C17.3092 6.11232 16.917 5.92704 16.4997 5.90625Z" fill="#848D9F"/>
</g>
<defs>
<clipPath id="clip0_1043_3264">
<rect width="18" height="18" fill="white"/>
</clipPath>
</defs>
</svg>
