<svg width="18" height="18" viewBox="0 0 18 18" fill="none" xmlns="http://www.w3.org/2000/svg">
<g clip-path="url(#clip0_1711_8650)">
<path d="M16.5426 3.92224L11.0121 1.28749C9.7947 0.560317 8.27946 0.547414 7.04984 1.25374L1.45711 3.92224C1.43613 3.93275 1.41436 3.944 1.39411 3.95599C0.0668948 4.71487 -0.393863 6.40599 0.36502 7.73321C0.622258 8.18314 1.00064 8.55179 1.45711 8.79725L2.99987 9.53226V13.2072C3.00079 14.8506 4.07007 16.3024 5.63912 16.7908C6.73104 17.1066 7.86325 17.2613 8.99989 17.2498C10.1363 17.2625 11.2686 17.1091 12.3606 16.7945C13.9297 16.3062 14.999 14.8543 14.9999 13.211V9.53075L16.4999 8.81374V14.9997C16.4999 15.4139 16.8357 15.7497 17.2499 15.7497C17.6641 15.7497 17.9999 15.4139 17.9999 14.9997V5.99973C18.0049 5.11903 17.3095 4.30544 16.5426 3.92224ZM13.4999 13.211C13.5002 14.1939 12.8625 15.0634 11.9249 15.3583C10.974 15.6299 9.98869 15.7618 8.99985 15.7498C8.01101 15.7618 7.02569 15.6299 6.07485 15.3583C5.1372 15.0634 4.49946 14.1939 4.49985 13.211V10.247L6.98761 11.432C7.60144 11.7965 8.30249 11.9881 9.01637 11.9863C9.69587 11.9911 10.3639 11.8112 10.9491 11.4658L13.4999 10.247V13.211ZM15.8999 7.44349L10.2434 10.1435C9.45467 10.6027 8.47708 10.5897 7.70086 10.1097L2.1666 7.47724C1.54971 7.14459 1.3193 6.37484 1.65195 5.75799C1.76445 5.54938 1.93313 5.37644 2.13886 5.25874L7.7601 2.57375C8.54904 2.11552 9.5261 2.1285 10.3026 2.6075L15.8331 5.24225C16.2398 5.46809 16.4943 5.89457 16.4998 6.35976C16.5006 6.80041 16.2737 7.21019 15.8999 7.44349Z" fill="#848D9F"/>
</g>
<defs>
<clipPath id="clip0_1711_8650">
<rect width="18" height="18" fill="white"/>
</clipPath>
</defs>
</svg>
