<svg width="18" height="18" viewBox="0 0 18 18" fill="none" xmlns="http://www.w3.org/2000/svg">
<g clip-path="url(#clip0_1711_8704)">
<path d="M16.5426 3.92224L11.0121 1.28749C9.79473 0.560317 8.2795 0.547414 7.04987 1.25374L1.45714 3.92224C1.43616 3.93275 1.41439 3.944 1.39414 3.95599C0.0669253 4.71487 -0.393833 6.40599 0.36505 7.73321C0.622288 8.18314 1.00068 8.55179 1.45714 8.79725L2.99991 9.53226V13.2072C3.00082 14.8506 4.0701 16.3024 5.63916 16.7908C6.73107 17.1066 7.86328 17.2613 8.99992 17.2498C10.1364 17.2625 11.2686 17.1091 12.3607 16.7945C13.9297 16.3062 14.999 14.8543 14.9999 13.211V9.53075L16.4999 8.81374V14.9997C16.4999 15.4139 16.8357 15.7497 17.2499 15.7497C17.6641 15.7497 17.9999 15.4139 17.9999 14.9997V5.99973C18.0049 5.11903 17.3095 4.30544 16.5426 3.92224ZM13.4999 13.211C13.5003 14.1939 12.8625 15.0634 11.9249 15.3583C10.974 15.6299 9.98872 15.7618 8.99988 15.7498C8.01104 15.7618 7.02572 15.6299 6.07488 15.3583C5.13723 15.0634 4.4995 14.1939 4.49988 13.211V10.247L6.98764 11.432C7.60147 11.7965 8.30252 11.9881 9.01641 11.9863C9.6959 11.9911 10.364 11.8112 10.9492 11.4658L13.4999 10.247V13.211ZM15.8999 7.44349L10.2434 10.1435C9.4547 10.6027 8.47711 10.5897 7.70089 10.1097L2.16663 7.47724C1.54975 7.14459 1.31933 6.37484 1.65198 5.75799C1.76448 5.54938 1.93316 5.37644 2.13889 5.25874L7.76013 2.57375C8.54907 2.11552 9.52614 2.1285 10.3026 2.6075L15.8331 5.24225C16.2399 5.46809 16.4943 5.89457 16.4999 6.35976C16.5006 6.80041 16.2737 7.21019 15.8999 7.44349Z" fill="#0074E5"/>
</g>
<defs>
<clipPath id="clip0_1711_8704">
<rect width="18" height="18" fill="white"/>
</clipPath>
</defs>
</svg>
