<svg width="18" height="18" viewBox="0 0 18 18" fill="none" xmlns="http://www.w3.org/2000/svg">
<g clip-path="url(#clip0_1983_5608)">
<path d="M12.0001 4.5C12.199 4.5 12.3898 4.57902 12.5305 4.71967C12.6711 4.86032 12.7501 5.05109 12.7501 5.25C12.7501 5.44891 12.6711 5.63968 12.5305 5.78033C12.3898 5.92098 12.199 6 12.0001 6H6.00012C5.80121 6 5.61044 5.92098 5.46979 5.78033C5.32914 5.63968 5.25012 5.44891 5.25012 5.25C5.25012 5.05109 5.32914 4.86032 5.46979 4.71967C5.61044 4.57902 5.80121 4.5 6.00012 4.5H12.0001ZM17.7804 17.7803C17.6397 17.9209 17.449 17.9998 17.2501 17.9998C17.0512 17.9998 16.8605 17.9209 16.7199 17.7803L14.9146 15.975C14.38 16.3162 13.7593 16.4983 13.1251 16.5C12.4576 16.5 11.8051 16.3021 11.2501 15.9312C10.6951 15.5604 10.2625 15.0333 10.007 14.4166C9.75158 13.7999 9.68475 13.1213 9.81497 12.4666C9.9452 11.8119 10.2666 11.2105 10.7386 10.7385C11.2106 10.2665 11.812 9.94507 12.4667 9.81485C13.1214 9.68462 13.8 9.75146 14.4167 10.0069C15.0334 10.2624 15.5605 10.6949 15.9313 11.25C16.3022 11.805 16.5001 12.4575 16.5001 13.125C16.4984 13.7592 16.3163 14.3799 15.9751 14.9145L17.7804 16.7197C17.921 16.8604 18 17.0511 18 17.25C18 17.4489 17.921 17.6396 17.7804 17.7803ZM13.1251 15C13.496 15 13.8585 14.89 14.1668 14.684C14.4752 14.478 14.7155 14.1851 14.8574 13.8425C14.9993 13.4999 15.0364 13.1229 14.9641 12.7592C14.8917 12.3955 14.7132 12.0614 14.4509 11.7992C14.1887 11.537 13.8546 11.3584 13.4909 11.286C13.1272 11.2137 12.7502 11.2508 12.4076 11.3927C12.065 11.5346 11.7721 11.775 11.5661 12.0833C11.3601 12.3916 11.2501 12.7542 11.2501 13.125C11.2501 13.6223 11.4477 14.0992 11.7993 14.4508C12.1509 14.8025 12.6278 15 13.1251 15ZM9.75012 16.5H5.25012C4.65338 16.5 4.08109 16.2629 3.65913 15.841C3.23718 15.419 3.00012 14.8467 3.00012 14.25V3.75C3.00012 3.15326 3.23718 2.58097 3.65913 2.15901C4.08109 1.73705 4.65338 1.5 5.25012 1.5H14.2501C14.449 1.5 14.6398 1.57902 14.7805 1.71967C14.9211 1.86032 15.0001 2.05109 15.0001 2.25V8.25C15.0001 8.44891 15.0791 8.63968 15.2198 8.78033C15.3604 8.92098 15.5512 9 15.7501 9C15.949 9 16.1398 8.92098 16.2805 8.78033C16.4211 8.63968 16.5001 8.44891 16.5001 8.25V2.25C16.5001 1.65326 16.2631 1.08097 15.8411 0.65901C15.4192 0.237053 14.8469 0 14.2501 0L5.25012 0C4.25593 0.00119089 3.30279 0.396661 2.59979 1.09966C1.89678 1.80267 1.50131 2.7558 1.50012 3.75V14.25C1.50131 15.2442 1.89678 16.1973 2.59979 16.9003C3.30279 17.6033 4.25593 17.9988 5.25012 18H9.75012C9.94903 18 10.1398 17.921 10.2805 17.7803C10.4211 17.6397 10.5001 17.4489 10.5001 17.25C10.5001 17.0511 10.4211 16.8603 10.2805 16.7197C10.1398 16.579 9.94903 16.5 9.75012 16.5Z" fill="#848D9F"/>
</g>
<defs>
<clipPath id="clip0_1983_5608">
<rect width="18" height="18" fill="white"/>
</clipPath>
</defs>
</svg>
