<svg width="15" height="15" viewBox="0 0 15 15" fill="none" xmlns="http://www.w3.org/2000/svg">
<g clip-path="url(#clip0_1651_8643)">
<path d="M7.50017 0C5.5117 0.00215068 3.6053 0.793018 2.19924 2.19907C0.793183 3.60513 0.00231614 5.51154 0.000165467 7.5C-0.0785845 13.4831 6.97454 17.1431 11.8127 13.6356C11.8822 13.5894 11.9417 13.5297 11.9878 13.46C12.0339 13.3904 12.0655 13.3122 12.0809 13.2301C12.0962 13.148 12.095 13.0637 12.0772 12.9821C12.0594 12.9005 12.0254 12.8234 11.9773 12.7551C11.9292 12.6869 11.8679 12.6289 11.797 12.5848C11.7262 12.5406 11.6472 12.5111 11.5647 12.498C11.4822 12.4849 11.398 12.4884 11.3169 12.5084C11.2358 12.5284 11.1596 12.5644 11.0927 12.6144C7.06266 15.535 1.18767 12.4862 1.25017 7.5C1.59329 -0.79125 13.4083 -0.789375 13.7502 7.5V8.75C13.7502 9.08152 13.6185 9.39946 13.384 9.63388C13.1496 9.8683 12.8317 10 12.5002 10C12.1686 10 11.8507 9.8683 11.6163 9.63388C11.3819 9.39946 11.2502 9.08152 11.2502 8.75V7.5C11.0927 2.54437 3.90704 2.545 3.75017 7.5C3.75744 8.26 3.99482 8.99996 4.43103 9.62235C4.86724 10.2447 5.48179 10.7204 6.1937 10.9865C6.90561 11.2527 7.68145 11.2969 8.41898 11.1133C9.15651 10.9297 9.8211 10.527 10.3252 9.95813C10.5963 10.4366 11.0177 10.8124 11.524 11.0272C12.0303 11.242 12.5933 11.2838 13.1258 11.1462C13.6583 11.0086 14.1305 10.6992 14.4694 10.266C14.8083 9.83282 14.9948 9.29996 15.0002 8.75V7.5C14.998 5.51154 14.2071 3.60513 12.8011 2.19907C11.395 0.793018 9.48863 0.00215068 7.50017 0V0ZM7.50017 10C6.83712 10 6.20124 9.73661 5.7324 9.26777C5.26356 8.79893 5.00017 8.16304 5.00017 7.5C5.00017 6.83696 5.26356 6.20107 5.7324 5.73223C6.20124 5.26339 6.83712 5 7.50017 5C8.16321 5 8.79909 5.26339 9.26793 5.73223C9.73677 6.20107 10.0002 6.83696 10.0002 7.5C10.0002 8.16304 9.73677 8.79893 9.26793 9.26777C8.79909 9.73661 8.16321 10 7.50017 10Z" fill="#0074E5"/>
</g>
<defs>
<clipPath id="clip0_1651_8643">
<rect width="15" height="15" fill="white"/>
</clipPath>
</defs>
</svg>
