<svg width="15" height="15" viewBox="0 0 15 15" fill="none" xmlns="http://www.w3.org/2000/svg">
<g clip-path="url(#clip0_1651_8616)">
<path d="M14.9873 1.26439V3.76439C14.9873 3.93015 14.9215 4.08912 14.8043 4.20633C14.6871 4.32354 14.5281 4.38939 14.3623 4.38939C14.1966 4.38939 14.0376 4.32354 13.9204 4.20633C13.8032 4.08912 13.7373 3.93015 13.7373 3.76439V2.16251L10.4248 5.45751C10.3066 5.57107 10.1486 5.63366 9.98468 5.63179C9.82079 5.62992 9.66419 5.56375 9.54862 5.44752C9.43305 5.3313 9.36776 5.17432 9.36682 5.01042C9.36588 4.84652 9.42936 4.68881 9.54358 4.57126L12.8686 1.26439H11.2373C11.0716 1.26439 10.9126 1.19854 10.7954 1.08133C10.6782 0.964118 10.6123 0.805147 10.6123 0.639387C10.6123 0.473626 10.6782 0.314655 10.7954 0.197445C10.9126 0.0802347 11.0716 0.0143867 11.2373 0.0143867H13.7373C14.0689 0.0143867 14.3868 0.146083 14.6212 0.380503C14.8556 0.614924 14.9873 0.932866 14.9873 1.26439ZM14.4217 10.4763C14.7839 10.8395 14.9873 11.3315 14.9873 11.8444C14.9873 12.3573 14.7839 12.8493 14.4217 13.2125L13.8517 13.8688C8.73234 18.7675 -3.72329 6.31564 1.10171 1.18126L1.81983 0.556262C2.18364 0.204244 2.6713 0.00942477 3.17751 0.0138683C3.68373 0.0183119 4.16789 0.221661 4.52546 0.580012C4.54421 0.599387 5.70233 2.10439 5.70233 2.10439C6.04588 2.46529 6.23717 2.94468 6.23647 3.44295C6.23578 3.94122 6.04314 4.42007 5.69858 4.78001L4.97421 5.69064C5.37474 6.66383 5.96362 7.54829 6.70703 8.2932C7.45043 9.0381 8.3337 9.62877 9.30608 10.0313L10.2217 9.30314C10.5816 8.95877 11.0603 8.76624 11.5585 8.76554C12.0566 8.76485 12.5358 8.95603 12.8967 9.29939C12.8967 9.29939 14.4023 10.4575 14.4217 10.4763ZM13.5623 11.385C13.5623 11.385 12.0667 10.2338 12.0473 10.215C11.9186 10.0873 11.7446 10.0157 11.5633 10.0157C11.3819 10.0157 11.208 10.0873 11.0792 10.215C11.0623 10.2313 9.80171 11.2363 9.80171 11.2363C9.71676 11.3039 9.61566 11.3482 9.50836 11.3649C9.40107 11.3815 9.29129 11.3699 9.18983 11.3313C7.92934 10.8625 6.78445 10.1281 5.83287 9.1778C4.88128 8.22751 4.14529 7.08362 3.67483 5.82376C3.63368 5.72134 3.62038 5.60984 3.6363 5.50061C3.65222 5.39137 3.69678 5.28831 3.76546 5.20189C3.76546 5.20189 4.76983 3.94126 4.78671 3.92439C4.91438 3.79563 4.98601 3.62165 4.98601 3.44032C4.98601 3.259 4.91438 3.08502 4.78671 2.95626C4.76796 2.93751 3.61671 1.44126 3.61671 1.44126C3.4861 1.324 3.31559 1.26113 3.14011 1.26555C2.96464 1.26996 2.79751 1.34133 2.67296 1.46501L1.95483 2.09001C-1.57267 6.32876 9.22296 16.5263 12.9373 13.0163L13.5073 12.36C13.6417 12.2367 13.7227 12.0658 13.7329 11.8837C13.7432 11.7016 13.682 11.5227 13.5623 11.385Z" fill="#0074E5"/>
</g>
<defs>
<clipPath id="clip0_1651_8616">
<rect width="15" height="15" fill="white"/>
</clipPath>
</defs>
</svg>
