<svg width="20" height="20" viewBox="0 0 20 20" fill="none" xmlns="http://www.w3.org/2000/svg">
<g clip-path="url(#clip0_1651_11001)">
<path d="M15.8333 18.3339H4.16667C3.062 18.3326 2.00296 17.8932 1.22185 17.1121C0.440735 16.3309 0.00132321 15.2719 0 14.1672L0 5.8339C0.00132321 4.72924 0.440735 3.6702 1.22185 2.88909C2.00296 2.10797 3.062 1.66856 4.16667 1.66724H15.8333C16.938 1.66856 17.997 2.10797 18.7782 2.88909C19.5593 3.6702 19.9987 4.72924 20 5.8339V14.1672C19.9987 15.2719 19.5593 16.3309 18.7782 17.1121C17.997 17.8932 16.938 18.3326 15.8333 18.3339ZM4.16667 3.3339C3.50363 3.3339 2.86774 3.5973 2.3989 4.06614C1.93006 4.53498 1.66667 5.17086 1.66667 5.8339V14.1672C1.66667 14.8303 1.93006 15.4662 2.3989 15.935C2.86774 16.4038 3.50363 16.6672 4.16667 16.6672H15.8333C16.4964 16.6672 17.1323 16.4038 17.6011 15.935C18.0699 15.4662 18.3333 14.8303 18.3333 14.1672V5.8339C18.3333 5.17086 18.0699 4.53498 17.6011 4.06614C17.1323 3.5973 16.4964 3.3339 15.8333 3.3339H4.16667Z" fill="#848D9F"/>
<path d="M15.834 10.8339H9.16732C8.9463 10.8339 8.73434 10.7461 8.57806 10.5898C8.42178 10.4336 8.33398 10.2216 8.33398 10.0006C8.33398 9.77956 8.42178 9.5676 8.57806 9.41132C8.73434 9.25503 8.9463 9.16724 9.16732 9.16724H15.834C16.055 9.16724 16.267 9.25503 16.4232 9.41132C16.5795 9.5676 16.6673 9.77956 16.6673 10.0006C16.6673 10.2216 16.5795 10.4336 16.4232 10.5898C16.267 10.7461 16.055 10.8339 15.834 10.8339Z" fill="#848D9F"/>
<path d="M5.83398 10.8339H4.16732C3.9463 10.8339 3.73434 10.7461 3.57806 10.5898C3.42178 10.4336 3.33398 10.2216 3.33398 10.0006C3.33398 9.77956 3.42178 9.5676 3.57806 9.41132C3.73434 9.25503 3.9463 9.16724 4.16732 9.16724H5.83398C6.05499 9.16724 6.26695 9.25503 6.42323 9.41132C6.57951 9.5676 6.66731 9.77956 6.66731 10.0006C6.66731 10.2216 6.57951 10.4336 6.42323 10.5898C6.26695 10.7461 6.05499 10.8339 5.83398 10.8339Z" fill="#848D9F"/>
<path d="M10.834 14.9994H4.16732C3.9463 14.9994 3.73434 14.9116 3.57806 14.7554C3.42178 14.5991 3.33398 14.3871 3.33398 14.1661C3.33398 13.9451 3.42178 13.7331 3.57806 13.5768C3.73434 13.4206 3.9463 13.3328 4.16732 13.3328H10.834C11.055 13.3328 11.267 13.4206 11.4232 13.5768C11.5795 13.7331 11.6673 13.9451 11.6673 14.1661C11.6673 14.3871 11.5795 14.5991 11.4232 14.7554C11.267 14.9116 11.055 14.9994 10.834 14.9994Z" fill="#848D9F"/>
<path d="M15.834 14.9994H14.1673C13.9463 14.9994 13.7343 14.9116 13.5781 14.7554C13.4218 14.5991 13.334 14.3871 13.334 14.1661C13.334 13.9451 13.4218 13.7331 13.5781 13.5768C13.7343 13.4206 13.9463 13.3328 14.1673 13.3328H15.834C16.055 13.3328 16.267 13.4206 16.4232 13.5768C16.5795 13.7331 16.6673 13.9451 16.6673 14.1661C16.6673 14.3871 16.5795 14.5991 16.4232 14.7554C16.267 14.9116 16.055 14.9994 15.834 14.9994Z" fill="#848D9F"/>
</g>
<defs>
<clipPath id="clip0_1651_11001">
<rect width="20" height="20" fill="white"/>
</clipPath>
</defs>
</svg>
