<svg width="20" height="20" viewBox="0 0 20 20" fill="none" xmlns="http://www.w3.org/2000/svg">
<g clip-path="url(#clip0_2531_5722)">
<mask id="mask0_2531_5722" style="mask-type:luminance" maskUnits="userSpaceOnUse" x="0" y="0" width="20" height="20">
<path d="M0 0H20V20H0V0Z" fill="white"/>
</mask>
<g mask="url(#mask0_2531_5722)">
<path d="M15.4167 14.1668C14.7264 14.1668 14.1667 13.6072 14.1667 12.9168C14.1667 12.2265 14.7264 11.6668 15.4167 11.6668C16.1071 11.6668 16.6667 12.2265 16.6667 12.9168C16.6667 13.6072 16.1071 14.1668 15.4167 14.1668Z" fill="#848D9F"/>
<path d="M4.16667 2.5H15.8333C16.938 2.50132 17.997 2.94073 18.7782 3.72185C19.5592 4.50297 19.9987 5.56201 20 6.66667V13.3333C19.9987 14.438 19.5592 15.497 18.7782 16.2782C17.997 17.0592 16.938 17.4987 15.8333 17.5H4.16667C3.062 17.4987 2.00297 17.0592 1.22185 16.2782C0.440734 15.497 0.00132242 14.438 0 13.3333V6.66667C0.00132242 5.56201 0.440734 4.50297 1.22185 3.72185C2.00297 2.94073 3.062 2.50132 4.16667 2.5ZM15.8333 4.16667H4.16667C3.50362 4.16667 2.86774 4.43006 2.3989 4.8989C1.93006 5.36774 1.66667 6.00362 1.66667 6.66667H18.3333C18.3333 6.00362 18.0699 5.36774 17.6011 4.8989C17.1322 4.43006 16.4963 4.16667 15.8333 4.16667ZM4.16667 15.8333H15.8333C16.4963 15.8333 17.1322 15.5699 17.6011 15.1011C18.0699 14.6322 18.3333 13.9963 18.3333 13.3333V8.33333H1.66667V13.3333C1.66667 13.9963 1.93006 14.6322 2.3989 15.1011C2.86774 15.5699 3.50362 15.8333 4.16667 15.8333Z" fill="#848D9F"/>
</g>
</g>
<defs>
<clipPath id="clip0_2531_5722">
<rect width="20" height="20" fill="white"/>
</clipPath>
</defs>
</svg>
