<svg width="23" height="22" viewBox="0 0 23 22" fill="none" xmlns="http://www.w3.org/2000/svg">
<g clip-path="url(#clip0_1174_5501)">
<path d="M18.4071 2.86188L16.8891 1.34205C16.4644 0.915169 15.9592 0.576759 15.4028 0.346406C14.8465 0.116052 14.2499 -0.00167081 13.6478 4.90942e-05H7.83333C6.6182 0.00150463 5.45326 0.484858 4.59404 1.34408C3.73481 2.20331 3.25146 3.36825 3.25 4.58338V17.4167C3.25146 18.6318 3.73481 19.7968 4.59404 20.656C5.45326 21.5152 6.6182 21.9986 7.83333 22.0001H15.1667C16.3818 21.9986 17.5467 21.5152 18.406 20.656C19.2652 19.7968 19.7485 18.6318 19.75 17.4167V6.1023C19.7515 5.50022 19.6336 4.90382 19.403 4.34761C19.1725 3.7914 18.834 3.28642 18.4071 2.86188ZM17.1109 4.15805C17.2409 4.28759 17.3574 4.43011 17.4583 4.58338H15.1667V2.29172C15.3197 2.39376 15.4624 2.51042 15.5929 2.64005L17.1109 4.15805ZM17.9167 17.4167C17.9167 18.1461 17.6269 18.8455 17.1112 19.3613C16.5955 19.877 15.896 20.1667 15.1667 20.1667H7.83333C7.10399 20.1667 6.40452 19.877 5.88879 19.3613C5.37306 18.8455 5.08333 18.1461 5.08333 17.4167V4.58338C5.08333 3.85404 5.37306 3.15456 5.88879 2.63884C6.40452 2.12311 7.10399 1.83338 7.83333 1.83338H13.3333V4.58338C13.3333 5.06961 13.5265 5.53593 13.8703 5.87975C14.2141 6.22356 14.6804 6.41672 15.1667 6.41672H17.9167V17.4167ZM15.1667 8.25005C15.4098 8.25005 15.6429 8.34663 15.8148 8.51854C15.9868 8.69044 16.0833 8.9236 16.0833 9.16672C16.0833 9.40983 15.9868 9.64299 15.8148 9.8149C15.6429 9.98681 15.4098 10.0834 15.1667 10.0834H7.83333C7.59022 10.0834 7.35706 9.98681 7.18515 9.8149C7.01324 9.64299 6.91667 9.40983 6.91667 9.16672C6.91667 8.9236 7.01324 8.69044 7.18515 8.51854C7.35706 8.34663 7.59022 8.25005 7.83333 8.25005H15.1667ZM16.0833 12.8334C16.0833 13.0765 15.9868 13.3097 15.8148 13.4816C15.6429 13.6535 15.4098 13.7501 15.1667 13.7501H7.83333C7.59022 13.7501 7.35706 13.6535 7.18515 13.4816C7.01324 13.3097 6.91667 13.0765 6.91667 12.8334C6.91667 12.5903 7.01324 12.3571 7.18515 12.1852C7.35706 12.0133 7.59022 11.9167 7.83333 11.9167H15.1667C15.4098 11.9167 15.6429 12.0133 15.8148 12.1852C15.9868 12.3571 16.0833 12.5903 16.0833 12.8334ZM15.9073 15.962C16.0498 16.158 16.1089 16.4025 16.0716 16.6419C16.0343 16.8814 15.9038 17.0964 15.7084 17.2398C14.7797 17.9016 13.6797 18.2813 12.5404 18.3334C11.8748 18.3302 11.2294 18.1043 10.7071 17.6917C10.4064 17.4855 10.2918 17.4167 10.0654 17.4167C9.45256 17.5116 8.87432 17.7622 8.38608 18.1446C8.19244 18.2826 7.95272 18.34 7.71755 18.3046C7.48239 18.2692 7.27018 18.1438 7.12574 17.9549C6.98131 17.7659 6.91595 17.5283 6.94348 17.292C6.971 17.0558 7.08925 16.8395 7.27325 16.6889C8.081 16.0618 9.05092 15.6783 10.0691 15.5834C10.6797 15.5931 11.27 15.8042 11.7484 16.1838C11.9665 16.3799 12.2472 16.492 12.5404 16.5001C13.29 16.4439 14.0107 16.1878 14.6277 15.7585C14.8244 15.6159 15.0697 15.5572 15.3096 15.5954C15.5496 15.6335 15.7646 15.7654 15.9073 15.962Z" fill="#0074E5"/>
</g>
<defs>
<clipPath id="clip0_1174_5501">
<rect width="22" height="22" fill="white" transform="translate(0.5)"/>
</clipPath>
</defs>
</svg>
