<svg width="20" height="20" viewBox="0 0 20 20" fill="none" xmlns="http://www.w3.org/2000/svg">
<g clip-path="url(#clip0_1711_9750)">
<path d="M15.8333 4.16634H13.3333V3.33301C13.3333 2.66997 13.0699 2.03408 12.6011 1.56524C12.1323 1.0964 11.4964 0.833008 10.8333 0.833008H9.16667C8.50362 0.833008 7.86774 1.0964 7.3989 1.56524C6.93006 2.03408 6.66667 2.66997 6.66667 3.33301V4.16634H4.16667C3.062 4.16766 2.00296 4.60708 1.22185 5.38819C0.440735 6.16931 0.00132321 7.22834 0 8.33301L0 14.9997C0.00132321 16.1043 0.440735 17.1634 1.22185 17.9445C2.00296 18.7256 3.062 19.165 4.16667 19.1663H15.8333C16.938 19.165 17.997 18.7256 18.7782 17.9445C19.5593 17.1634 19.9987 16.1043 20 14.9997V8.33301C19.9987 7.22834 19.5593 6.16931 18.7782 5.38819C17.997 4.60708 16.938 4.16766 15.8333 4.16634ZM8.33333 3.33301C8.33333 3.11199 8.42113 2.90003 8.57741 2.74375C8.73369 2.58747 8.94565 2.49967 9.16667 2.49967H10.8333C11.0543 2.49967 11.2663 2.58747 11.4226 2.74375C11.5789 2.90003 11.6667 3.11199 11.6667 3.33301V4.16634H8.33333V3.33301ZM18.3333 14.9997C18.3333 15.6627 18.0699 16.2986 17.6011 16.7674C17.1323 17.2363 16.4964 17.4997 15.8333 17.4997H4.16667C3.50363 17.4997 2.86774 17.2363 2.3989 16.7674C1.93006 16.2986 1.66667 15.6627 1.66667 14.9997V8.33301C1.66667 7.66997 1.93006 7.03408 2.3989 6.56524C2.86774 6.0964 3.50363 5.83301 4.16667 5.83301H15.8333C16.4964 5.83301 17.1323 6.0964 17.6011 6.56524C18.0699 7.03408 18.3333 7.66997 18.3333 8.33301V14.9997ZM13.3333 11.6663C13.3333 11.8874 13.2455 12.0993 13.0893 12.2556C12.933 12.4119 12.721 12.4997 12.5 12.4997H10.8333V14.1663C10.8333 14.3874 10.7455 14.5993 10.5893 14.7556C10.433 14.9119 10.221 14.9997 10 14.9997C9.77899 14.9997 9.56702 14.9119 9.41074 14.7556C9.25446 14.5993 9.16667 14.3874 9.16667 14.1663V12.4997H7.5C7.27899 12.4997 7.06702 12.4119 6.91074 12.2556C6.75446 12.0993 6.66667 11.8874 6.66667 11.6663C6.66667 11.4453 6.75446 11.2334 6.91074 11.0771C7.06702 10.9208 7.27899 10.833 7.5 10.833H9.16667V9.16634C9.16667 8.94533 9.25446 8.73337 9.41074 8.57709C9.56702 8.4208 9.77899 8.33301 10 8.33301C10.221 8.33301 10.433 8.4208 10.5893 8.57709C10.7455 8.73337 10.8333 8.94533 10.8333 9.16634V10.833H12.5C12.721 10.833 12.933 10.9208 13.0893 11.0771C13.2455 11.2334 13.3333 11.4453 13.3333 11.6663Z" fill="#0074E5"/>
</g>
<defs>
<clipPath id="clip0_1711_9750">
<rect width="20" height="20" fill="white"/>
</clipPath>
</defs>
</svg>
