<svg width="22" height="22" viewBox="0 0 22 22" fill="none" xmlns="http://www.w3.org/2000/svg">
<g clip-path="url(#clip0_1174_5471)">
<path d="M17.4167 3.66667H16.951L14.949 1.07067C14.691 0.738656 14.3608 0.469715 13.9834 0.284216C13.6061 0.0987172 13.1915 0.00152446 12.771 0L9.229 0C8.80852 0.00152446 8.39391 0.0987172 8.01655 0.284216C7.6392 0.469715 7.30902 0.738656 7.051 1.07067L5.049 3.66667H4.58333C3.3682 3.66812 2.20326 4.15148 1.34403 5.0107C0.484808 5.86993 0.00145554 7.03487 0 8.25L0 17.4167C0.00145554 18.6318 0.484808 19.7967 1.34403 20.656C2.20326 21.5152 3.3682 21.9985 4.58333 22H17.4167C18.6318 21.9985 19.7967 21.5152 20.656 20.656C21.5152 19.7967 21.9985 18.6318 22 17.4167V8.25C21.9985 7.03487 21.5152 5.86993 20.656 5.0107C19.7967 4.15148 18.6318 3.66812 17.4167 3.66667ZM8.503 2.19083C8.58887 2.07997 8.69888 1.99014 8.82469 1.92819C8.95049 1.86624 9.08877 1.8338 9.229 1.83333H12.771C12.9112 1.83394 13.0494 1.86644 13.1752 1.92838C13.301 1.99032 13.411 2.08007 13.497 2.19083L14.6355 3.66667H7.3645L8.503 2.19083ZM20.1667 17.4167C20.1667 18.146 19.8769 18.8455 19.3612 19.3612C18.8455 19.8769 18.146 20.1667 17.4167 20.1667H4.58333C3.85399 20.1667 3.15451 19.8769 2.63879 19.3612C2.12306 18.8455 1.83333 18.146 1.83333 17.4167V8.25C1.83333 7.52065 2.12306 6.82118 2.63879 6.30546C3.15451 5.78973 3.85399 5.5 4.58333 5.5H17.4167C18.146 5.5 18.8455 5.78973 19.3612 6.30546C19.8769 6.82118 20.1667 7.52065 20.1667 8.25V17.4167Z" fill="#0074E5"/>
<path d="M11 7.33325C9.91221 7.33325 8.84884 7.65582 7.94437 8.26017C7.0399 8.86452 6.33495 9.7235 5.91867 10.7285C5.50238 11.7335 5.39346 12.8394 5.60568 13.9062C5.8179 14.9731 6.34173 15.9532 7.11092 16.7223C7.8801 17.4915 8.86011 18.0154 9.92701 18.2276C10.9939 18.4398 12.0998 18.3309 13.1048 17.9146C14.1098 17.4983 14.9687 16.7934 15.5731 15.8889C16.1774 14.9844 16.5 13.921 16.5 12.8333C16.4985 11.375 15.9186 9.97691 14.8875 8.94577C13.8563 7.91464 12.4582 7.33471 11 7.33325ZM11 16.4999C10.2748 16.4999 9.56589 16.2849 8.96291 15.882C8.35993 15.4791 7.88997 14.9064 7.61244 14.2364C7.33492 13.5664 7.26231 12.8292 7.40379 12.1179C7.54527 11.4067 7.89449 10.7533 8.40728 10.2405C8.92007 9.72773 9.57341 9.37852 10.2847 9.23704C10.9959 9.09556 11.7332 9.16817 12.4032 9.44569C13.0732 9.72321 13.6458 10.1932 14.0487 10.7962C14.4516 11.3991 14.6667 12.1081 14.6667 12.8333C14.6667 13.8057 14.2804 14.7383 13.5927 15.426C12.9051 16.1136 11.9725 16.4999 11 16.4999Z" fill="#0074E5"/>
</g>
<defs>
<clipPath id="clip0_1174_5471">
<rect width="22" height="22" fill="white"/>
</clipPath>
</defs>
</svg>
