<svg width="36" height="36" viewBox="0 0 36 36" fill="none" xmlns="http://www.w3.org/2000/svg">
<path d="M27 8.99973C26.7187 8.71852 26.3372 8.56055 25.9395 8.56055C25.5417 8.56055 25.1603 8.71852 24.879 8.99973L18 15.8787L11.121 8.99973C10.8397 8.71852 10.4582 8.56055 10.0605 8.56055C9.66272 8.56055 9.28126 8.71852 8.99997 8.99973C8.71876 9.28102 8.56079 9.66248 8.56079 10.0602C8.56079 10.458 8.71876 10.8394 8.99997 11.1207L15.879 17.9997L8.99997 24.8787C8.71876 25.16 8.56079 25.5415 8.56079 25.9392C8.56079 26.337 8.71876 26.7184 8.99997 26.9997C9.28126 27.2809 9.66272 27.4389 10.0605 27.4389C10.4582 27.4389 10.8397 27.2809 11.121 26.9997L18 20.1207L24.879 26.9997C25.1603 27.2809 25.5417 27.4389 25.9395 27.4389C26.3372 27.4389 26.7187 27.2809 27 26.9997C27.2812 26.7184 27.4392 26.337 27.4392 25.9392C27.4392 25.5415 27.2812 25.16 27 24.8787L20.121 17.9997L27 11.1207C27.2812 10.8394 27.4392 10.458 27.4392 10.0602C27.4392 9.66248 27.2812 9.28102 27 8.99973Z" fill="#848D9F"/>
</svg>
