<svg width="23" height="22" viewBox="0 0 23 22" fill="none" xmlns="http://www.w3.org/2000/svg">
<g clip-path="url(#clip0_1174_5497)">
<path d="M10.5833 11C10.8264 11 11.0596 11.0966 11.2315 11.2685C11.4034 11.4404 11.5 11.6736 11.5 11.9167C11.5 12.1598 11.4034 12.3929 11.2315 12.5648C11.0596 12.7368 10.8264 12.8333 10.5833 12.8333H7.83333C7.59022 12.8333 7.35706 12.7368 7.18515 12.5648C7.01324 12.3929 6.91667 12.1598 6.91667 11.9167C6.91667 11.6736 7.01324 11.4404 7.18515 11.2685C7.35706 11.0966 7.59022 11 7.83333 11H10.5833ZM16.0833 8.25C16.0833 8.00688 15.9868 7.77373 15.8148 7.60182C15.6429 7.42991 15.4098 7.33333 15.1667 7.33333H7.83333C7.59022 7.33333 7.35706 7.42991 7.18515 7.60182C7.01324 7.77373 6.91667 8.00688 6.91667 8.25C6.91667 8.49312 7.01324 8.72627 7.18515 8.89818C7.35706 9.07009 7.59022 9.16667 7.83333 9.16667H15.1667C15.4098 9.16667 15.6429 9.07009 15.8148 8.89818C15.9868 8.72627 16.0833 8.49312 16.0833 8.25ZM7.83333 5.5H15.1667C15.4098 5.5 15.6429 5.40342 15.8148 5.23151C15.9868 5.05961 16.0833 4.82645 16.0833 4.58333C16.0833 4.34022 15.9868 4.10706 15.8148 3.93515C15.6429 3.76324 15.4098 3.66667 15.1667 3.66667H7.83333C7.59022 3.66667 7.35706 3.76324 7.18515 3.93515C7.01324 4.10706 6.91667 4.34022 6.91667 4.58333C6.91667 4.82645 7.01324 5.05961 7.18515 5.23151C7.35706 5.40342 7.59022 5.5 7.83333 5.5ZM18.8333 17.8237V21.3373C18.8334 21.468 18.7947 21.5959 18.7221 21.7046C18.6494 21.8134 18.5462 21.8981 18.4254 21.9482C18.3046 21.9982 18.1716 22.0113 18.0434 21.9858C17.9151 21.9602 17.7973 21.8972 17.7049 21.8048L17 21.1007L16.2951 21.8048C16.2027 21.8972 16.0849 21.9602 15.9566 21.9858C15.8284 22.0113 15.6954 21.9982 15.5746 21.9482C15.4538 21.8981 15.3506 21.8134 15.2779 21.7046C15.2053 21.5959 15.1666 21.468 15.1667 21.3373V17.8237C14.4676 17.422 13.9209 16.8004 13.6118 16.0557C13.3028 15.3111 13.2486 14.4851 13.4578 13.7064C13.667 12.9278 14.1278 12.2401 14.7685 11.7506C15.4092 11.2611 16.1937 10.9972 17 11C17.3099 11.0039 17.618 11.0476 17.9167 11.1302V4.58333C17.9167 3.85399 17.6269 3.15451 17.1112 2.63879C16.5955 2.12306 15.896 1.83333 15.1667 1.83333H7.83333C7.10399 1.83333 6.40451 2.12306 5.88879 2.63879C5.37306 3.15451 5.08333 3.85399 5.08333 4.58333V15.5833C5.08333 16.3127 5.37306 17.0122 5.88879 17.5279C6.40451 18.0436 7.10399 18.3333 7.83333 18.3333H12.4167C12.6598 18.3333 12.8929 18.4299 13.0648 18.6018C13.2368 18.7737 13.3333 19.0069 13.3333 19.25C13.3333 19.4931 13.2368 19.7263 13.0648 19.8982C12.8929 20.0701 12.6598 20.1667 12.4167 20.1667H7.83333C6.6182 20.1652 5.45326 19.6819 4.59403 18.8226C3.73481 17.9634 3.25146 16.7985 3.25 15.5833V4.58333C3.25146 3.3682 3.73481 2.20326 4.59403 1.34403C5.45326 0.484808 6.6182 0.00145554 7.83333 0L15.1667 0C16.3818 0.00145554 17.5467 0.484808 18.406 1.34403C19.2652 2.20326 19.7485 3.3682 19.75 4.58333V12.2668C20.1091 12.6701 20.3734 13.1485 20.5237 13.6671C20.6739 14.1857 20.7063 14.7314 20.6184 15.2641C20.5306 15.7969 20.3246 16.3032 20.0158 16.7461C19.7069 17.1889 19.3029 17.5571 18.8333 17.8237ZM18.8333 14.6667C18.8333 14.3041 18.7258 13.9496 18.5244 13.6481C18.3229 13.3466 18.0366 13.1116 17.7016 12.9729C17.3666 12.8341 16.998 12.7978 16.6423 12.8686C16.2867 12.9393 15.96 13.1139 15.7036 13.3703C15.4472 13.6267 15.2726 13.9534 15.2019 14.309C15.1312 14.6646 15.1675 15.0333 15.3062 15.3683C15.445 15.7033 15.68 15.9896 15.9815 16.191C16.2829 16.3925 16.6374 16.5 17 16.5C17.4862 16.5 17.9525 16.3068 18.2964 15.963C18.6402 15.6192 18.8333 15.1529 18.8333 14.6667Z" fill="#0074E5"/>
</g>
<defs>
<clipPath id="clip0_1174_5497">
<rect width="22" height="22" fill="white" transform="translate(0.5)"/>
</clipPath>
</defs>
</svg>
