<svg width="22" height="22" viewBox="0 0 22 22" fill="none" xmlns="http://www.w3.org/2000/svg">
<g clip-path="url(#clip0_1678_18423)">
<path d="M22 8.25C22.0021 7.74536 21.8653 7.24987 21.6045 6.8178C21.3438 6.38573 20.9692 6.03373 20.5218 5.80035C20.0743 5.56698 19.5713 5.46122 19.0678 5.49466C18.5642 5.52811 18.0796 5.69946 17.667 5.98996C17.2543 6.28046 16.9296 6.67891 16.7283 7.14167C16.527 7.60443 16.4569 8.11366 16.5257 8.61359C16.5945 9.11352 16.7996 9.58488 17.1184 9.97605C17.4372 10.3672 17.8576 10.6631 18.3333 10.8313V14.6667C18.3333 16.1254 17.7539 17.5243 16.7224 18.5558C15.691 19.5872 14.292 20.1667 12.8333 20.1667C11.3746 20.1667 9.9757 19.5872 8.94425 18.5558C7.9128 17.5243 7.33333 16.1254 7.33333 14.6667V14.5933C8.85874 14.372 10.2537 13.6094 11.2634 12.4449C12.2732 11.2803 12.8304 9.79138 12.8333 8.25V4.58333C12.8319 3.3682 12.3485 2.20326 11.4893 1.34403C10.6301 0.484808 9.46513 0.00145554 8.25 0C8.00689 0 7.77373 0.0965771 7.60182 0.268485C7.42991 0.440394 7.33333 0.673552 7.33333 0.916667C7.33333 1.15978 7.42991 1.39294 7.60182 1.56485C7.77373 1.73676 8.00689 1.83333 8.25 1.83333C8.97935 1.83333 9.67882 2.12306 10.1945 2.63879C10.7103 3.15451 11 3.85399 11 4.58333V8.25C11 9.46558 10.5171 10.6314 9.65757 11.4909C8.79803 12.3504 7.63224 12.8333 6.41667 12.8333C5.20109 12.8333 4.0353 12.3504 3.17576 11.4909C2.31622 10.6314 1.83333 9.46558 1.83333 8.25V4.58333C1.83333 3.85399 2.12306 3.15451 2.63879 2.63879C3.15452 2.12306 3.85399 1.83333 4.58333 1.83333C4.82645 1.83333 5.05961 1.73676 5.23151 1.56485C5.40342 1.39294 5.5 1.15978 5.5 0.916667C5.5 0.673552 5.40342 0.440394 5.23151 0.268485C5.05961 0.0965771 4.82645 0 4.58333 0C3.3682 0.00145554 2.20326 0.484808 1.34404 1.34403C0.484809 2.20326 0.00145554 3.3682 0 4.58333L0 8.25C0.00294796 9.79138 0.560167 11.2803 1.56992 12.4449C2.57967 13.6094 3.97459 14.372 5.5 14.5933V14.6667C5.5 16.6116 6.27262 18.4769 7.64788 19.8521C9.02315 21.2274 10.8884 22 12.8333 22C14.7783 22 16.6435 21.2274 18.0188 19.8521C19.3941 18.4769 20.1667 16.6116 20.1667 14.6667V10.8313C20.701 10.6424 21.1639 10.293 21.4921 9.83097C21.8203 9.36891 21.9977 8.81674 22 8.25ZM19.25 9.16667C19.0687 9.16667 18.8915 9.11291 18.7407 9.01218C18.59 8.91146 18.4725 8.76829 18.4031 8.60079C18.3337 8.43329 18.3156 8.24898 18.3509 8.07117C18.3863 7.89335 18.4736 7.73002 18.6018 7.60182C18.73 7.47362 18.8934 7.38632 19.0712 7.35095C19.249 7.31558 19.4333 7.33373 19.6008 7.40311C19.7683 7.47249 19.9115 7.58998 20.0122 7.74073C20.1129 7.89147 20.1667 8.0687 20.1667 8.25C20.1667 8.49312 20.0701 8.72627 19.8982 8.89818C19.7263 9.07009 19.4931 9.16667 19.25 9.16667Z" fill="#0074E5"/>
</g>
<defs>
<clipPath id="clip0_1678_18423">
<rect width="22" height="22" fill="white"/>
</clipPath>
</defs>
</svg>
