<svg width="22" height="22" viewBox="0 0 22 22" fill="none" xmlns="http://www.w3.org/2000/svg">
<g clip-path="url(#clip0_1174_5474)">
<path d="M10.9993 18.3333C12.9436 18.3312 14.8076 17.5578 16.1824 16.183C17.5572 14.8082 18.3305 12.9443 18.3327 11V7.33333C18.3327 5.38841 17.5601 3.52315 16.1848 2.14788C14.8095 0.772617 12.9443 0 10.9993 0C9.05443 0 7.18917 0.772617 5.8139 2.14788C4.43863 3.52315 3.66602 5.38841 3.66602 7.33333V11C3.6682 12.9443 4.44152 14.8082 5.81631 16.183C7.1911 17.5578 9.0551 18.3312 10.9993 18.3333ZM10.9993 1.83333C12.2979 1.83574 13.5537 2.29705 14.545 3.13573C15.5364 3.97442 16.1994 5.1365 16.4168 6.41667H13.7493C13.5062 6.41667 13.2731 6.51324 13.1012 6.68515C12.9293 6.85706 12.8327 7.09022 12.8327 7.33333C12.8327 7.57645 12.9293 7.80961 13.1012 7.98151C13.2731 8.15342 13.5062 8.25 13.7493 8.25H16.4993V10.0833H13.7493C13.5062 10.0833 13.2731 10.1799 13.1012 10.3518C12.9293 10.5237 12.8327 10.7569 12.8327 11C12.8327 11.2431 12.9293 11.4763 13.1012 11.6482C13.2731 11.8201 13.5062 11.9167 13.7493 11.9167H16.4168C16.2014 13.1977 15.539 14.3609 14.5472 15.1999C13.5554 16.0388 12.2984 16.4991 10.9993 16.4991C9.70032 16.4991 8.44333 16.0388 7.45152 15.1999C6.45972 14.3609 5.7973 13.1977 5.58185 11.9167H8.24935C8.49246 11.9167 8.72562 11.8201 8.89753 11.6482C9.06944 11.4763 9.16602 11.2431 9.16602 11C9.16602 10.7569 9.06944 10.5237 8.89753 10.3518C8.72562 10.1799 8.49246 10.0833 8.24935 10.0833H5.49935V8.25H8.24935C8.49246 8.25 8.72562 8.15342 8.89753 7.98151C9.06944 7.80961 9.16602 7.57645 9.16602 7.33333C9.16602 7.09022 9.06944 6.85706 8.89753 6.68515C8.72562 6.51324 8.49246 6.41667 8.24935 6.41667H5.58185C5.79935 5.1365 6.46233 3.97442 7.45365 3.13573C8.44498 2.29705 9.70084 1.83574 10.9993 1.83333Z" fill="#0074E5"/>
<path d="M21.0833 11C20.8402 11 20.6071 11.0966 20.4352 11.2685C20.2632 11.4404 20.1667 11.6736 20.1667 11.9167C20.1642 14.104 19.2943 16.201 17.7476 17.7476C16.201 19.2943 14.104 20.1642 11.9167 20.1667H10.0833C7.89612 20.164 5.79925 19.2939 4.25265 17.7474C2.70605 16.2008 1.836 14.1039 1.83333 11.9167C1.83333 11.6736 1.73676 11.4404 1.56485 11.2685C1.39294 11.0966 1.15978 11 0.916667 11C0.673552 11 0.440394 11.0966 0.268485 11.2685C0.0965771 11.4404 0 11.6736 0 11.9167C0.00315377 14.59 1.06651 17.1529 2.95682 19.0432C4.84713 20.9335 7.41004 21.9968 10.0833 22H11.9167C14.59 21.9968 17.1529 20.9335 19.0432 19.0432C20.9335 17.1529 21.9968 14.59 22 11.9167C22 11.6736 21.9034 11.4404 21.7315 11.2685C21.5596 11.0966 21.3264 11 21.0833 11Z" fill="#0074E5"/>
</g>
<defs>
<clipPath id="clip0_1174_5474">
<rect width="22" height="22" fill="white"/>
</clipPath>
</defs>
</svg>
