<svg width="22" height="22" viewBox="0 0 22 22" fill="none" xmlns="http://www.w3.org/2000/svg">
<g clip-path="url(#clip0_1174_5504)">
<path d="M20.35 1.98274C19.8347 1.55184 19.2308 1.23968 18.5813 1.06842C17.9317 0.897168 17.2525 0.871015 16.5917 0.991823L13.0882 1.62799C12.2793 1.77653 11.5439 2.19268 11 2.80957C10.4547 2.19161 9.71718 1.77537 8.90633 1.62799L5.40833 0.991823C4.74756 0.870909 4.06829 0.896719 3.4186 1.06743C2.7689 1.23813 2.16468 1.54956 1.64869 1.97967C1.13269 2.40978 0.717554 2.94805 0.43265 3.55639C0.147747 4.16472 4.47447e-05 4.82825 0 5.49999L0 15.3936C5.26679e-05 16.4668 0.376729 17.506 1.06437 18.33C1.75202 19.154 2.70702 19.7105 3.76292 19.9027L9.52508 20.9504C10.5004 21.1276 11.4996 21.1276 12.4749 20.9504L18.2417 19.9027C19.2967 19.7096 20.2507 19.1526 20.9374 18.3287C21.6241 17.5048 22.0001 16.4662 22 15.3936V5.49999C22.0004 4.82848 21.8528 4.16514 21.5676 3.5572C21.2824 2.94926 20.8667 2.41168 20.35 1.98274ZM10.0833 19.184C10.0063 19.173 9.92933 19.1602 9.85233 19.1464L4.09108 18.0996C3.45745 17.9843 2.88438 17.6503 2.47178 17.1558C2.05918 16.6612 1.83324 16.0376 1.83333 15.3936V5.49999C1.83333 4.77064 2.12306 4.07117 2.63879 3.55545C3.15452 3.03972 3.85399 2.74999 4.58333 2.74999C4.74933 2.75039 4.91497 2.76542 5.07833 2.79491L8.58 3.43657C9.00131 3.51367 9.38233 3.73584 9.65694 4.06453C9.93155 4.39322 10.0824 4.80768 10.0833 5.23599V19.184ZM20.1667 15.3936C20.1668 16.0376 19.9408 16.6612 19.5282 17.1558C19.1156 17.6503 18.5426 17.9843 17.9089 18.0996L12.1477 19.1464C12.0707 19.1602 11.9937 19.173 11.9167 19.184V5.23599C11.9166 4.80663 12.0672 4.39087 12.3423 4.0612C12.6174 3.73152 12.9994 3.50884 13.4218 3.43199L16.9244 2.79032C17.3211 2.71816 17.7288 2.73409 18.1186 2.83699C18.5084 2.93989 18.8708 3.12725 19.1802 3.3858C19.4895 3.64434 19.7383 3.96774 19.9087 4.33309C20.0792 4.69845 20.1673 5.09682 20.1667 5.49999V15.3936Z" fill="#0074E5"/>
</g>
<defs>
<clipPath id="clip0_1174_5504">
<rect width="22" height="22" fill="white"/>
</clipPath>
</defs>
</svg>
