<svg width="28" height="28" viewBox="0 0 28 28" fill="none" xmlns="http://www.w3.org/2000/svg">
<g clip-path="url(#clip0_1651_10139)">
<path d="M28 10.5C28.0027 9.85773 27.8285 9.22711 27.4967 8.6772C27.1649 8.12729 26.6881 7.67929 26.1186 7.38227C25.5492 7.08524 24.9089 6.95064 24.2681 6.99321C23.6272 7.03577 23.0104 7.25386 22.4852 7.62359C21.9601 7.99332 21.5467 8.50043 21.2905 9.0894C21.0343 9.67837 20.9451 10.3265 21.0327 10.9627C21.1203 11.599 21.3813 12.1989 21.7871 12.6968C22.1928 13.1946 22.7278 13.5712 23.3333 13.7853V18.6667C23.3333 20.5232 22.5958 22.3037 21.2831 23.6164C19.9703 24.9292 18.1898 25.6667 16.3333 25.6667C14.4768 25.6667 12.6963 24.9292 11.3836 23.6164C10.0708 22.3037 9.33333 20.5232 9.33333 18.6667V18.5733C11.2748 18.2916 13.0501 17.3211 14.3353 15.8389C15.6204 14.3567 16.3296 12.4618 16.3333 10.5V5.83333C16.3315 4.28681 15.7163 2.80415 14.6227 1.71059C13.5292 0.617029 12.0465 0.0018525 10.5 0C10.1906 0 9.89384 0.122916 9.67504 0.341709C9.45625 0.560501 9.33333 0.857247 9.33333 1.16667C9.33333 1.47609 9.45625 1.77283 9.67504 1.99162C9.89384 2.21042 10.1906 2.33333 10.5 2.33333C11.4283 2.33333 12.3185 2.70208 12.9749 3.35846C13.6313 4.01484 14 4.90508 14 5.83333V10.5C14 12.0471 13.3854 13.5308 12.2915 14.6248C11.1975 15.7188 9.71376 16.3333 8.16667 16.3333C6.61957 16.3333 5.13584 15.7188 4.04188 14.6248C2.94792 13.5308 2.33333 12.0471 2.33333 10.5V5.83333C2.33333 4.90508 2.70208 4.01484 3.35846 3.35846C4.01484 2.70208 4.90508 2.33333 5.83333 2.33333C6.14275 2.33333 6.4395 2.21042 6.65829 1.99162C6.87708 1.77283 7 1.47609 7 1.16667C7 0.857247 6.87708 0.560501 6.65829 0.341709C6.4395 0.122916 6.14275 0 5.83333 0C4.28681 0.0018525 2.80415 0.617029 1.71059 1.71059C0.617029 2.80415 0.0018525 4.28681 0 5.83333L0 10.5C0.00375194 12.4618 0.71294 14.3567 1.99808 15.8389C3.28322 17.3211 5.05858 18.2916 7 18.5733V18.6667C7 21.142 7.98333 23.516 9.73367 25.2663C11.484 27.0167 13.858 28 16.3333 28C18.8087 28 21.1827 27.0167 22.933 25.2663C24.6833 23.516 25.6667 21.142 25.6667 18.6667V13.7853C26.3467 13.5449 26.9359 13.1002 27.3536 12.5121C27.7712 11.9241 27.997 11.2213 28 10.5ZM24.5 11.6667C24.2693 11.6667 24.0437 11.5982 23.8518 11.47C23.66 11.3419 23.5104 11.1596 23.4221 10.9465C23.3338 10.7333 23.3107 10.4987 23.3558 10.2724C23.4008 10.0461 23.5119 9.8382 23.675 9.67504C23.8382 9.51188 24.0461 9.40077 24.2724 9.35575C24.4987 9.31073 24.7333 9.33384 24.9465 9.42214C25.1596 9.51044 25.3419 9.65998 25.4701 9.85183C25.5982 10.0437 25.6667 10.2693 25.6667 10.5C25.6667 10.8094 25.5438 11.1062 25.325 11.325C25.1062 11.5437 24.8094 11.6667 24.5 11.6667Z" fill="#0074E5"/>
</g>
<defs>
<clipPath id="clip0_1651_10139">
<rect width="28" height="28" fill="white"/>
</clipPath>
</defs>
</svg>
