<svg width="26" height="26" viewBox="0 0 26 26" fill="none" xmlns="http://www.w3.org/2000/svg">
<g clip-path="url(#clip0_1700_6149)">
<path d="M21.1629 3.38219L19.3689 1.58602C18.867 1.08153 18.27 0.681589 17.6124 0.409353C16.9549 0.137117 16.2499 -0.00201066 15.5382 2.19542e-05H8.66667C7.23061 0.00174213 5.85385 0.572977 4.8384 1.58843C3.82296 2.60388 3.25172 3.98063 3.25 5.41669V20.5834C3.25172 22.0194 3.82296 23.3962 4.8384 24.4116C5.85385 25.4271 7.23061 25.9983 8.66667 26H17.3333C18.7694 25.9983 20.1461 25.4271 21.1616 24.4116C22.177 23.3962 22.7483 22.0194 22.75 20.5834V7.21177C22.7517 6.50022 22.6124 5.79539 22.34 5.13805C22.0675 4.48071 21.6675 3.88391 21.1629 3.38219V3.38219ZM19.6311 4.91402C19.7847 5.06712 19.9223 5.23555 20.0417 5.41669H17.3333V2.70836C17.5142 2.82895 17.6829 2.96682 17.8371 3.12002L19.6311 4.91402ZM20.5833 20.5834C20.5833 21.4453 20.2409 22.272 19.6314 22.8815C19.0219 23.4909 18.1953 23.8334 17.3333 23.8334H8.66667C7.80471 23.8334 6.97806 23.4909 6.36857 22.8815C5.75908 22.272 5.41667 21.4453 5.41667 20.5834V5.41669C5.41667 4.55473 5.75908 3.72809 6.36857 3.11859C6.97806 2.5091 7.80471 2.16669 8.66667 2.16669H15.1667V5.41669C15.1667 5.99132 15.3949 6.54242 15.8013 6.94875C16.2076 7.35508 16.7587 7.58336 17.3333 7.58336H20.5833V20.5834ZM17.3333 9.75002C17.6207 9.75002 17.8962 9.86416 18.0994 10.0673C18.3025 10.2705 18.4167 10.546 18.4167 10.8334C18.4167 11.1207 18.3025 11.3962 18.0994 11.5994C17.8962 11.8026 17.6207 11.9167 17.3333 11.9167H8.66667C8.37935 11.9167 8.1038 11.8026 7.90063 11.5994C7.69747 11.3962 7.58333 11.1207 7.58333 10.8334C7.58333 10.546 7.69747 10.2705 7.90063 10.0673C8.1038 9.86416 8.37935 9.75002 8.66667 9.75002H17.3333ZM18.4167 15.1667C18.4167 15.454 18.3025 15.7296 18.0994 15.9327C17.8962 16.1359 17.6207 16.25 17.3333 16.25H8.66667C8.37935 16.25 8.1038 16.1359 7.90063 15.9327C7.69747 15.7296 7.58333 15.454 7.58333 15.1667C7.58333 14.8794 7.69747 14.6038 7.90063 14.4007C8.1038 14.1975 8.37935 14.0834 8.66667 14.0834H17.3333C17.6207 14.0834 17.8962 14.1975 18.0994 14.4007C18.3025 14.6038 18.4167 14.8794 18.4167 15.1667ZM18.2087 18.8641C18.3771 19.0958 18.4469 19.3847 18.4028 19.6677C18.3588 19.9507 18.2044 20.2048 17.9736 20.3743C16.876 21.1564 15.576 21.6052 14.2296 21.6667C13.443 21.6629 12.6802 21.3959 12.0629 20.9084C11.7076 20.6646 11.5722 20.5834 11.3046 20.5834C10.5803 20.6954 9.89692 20.9916 9.31992 21.4435C9.09106 21.6067 8.80776 21.6745 8.52983 21.6327C8.25191 21.5908 8.00112 21.4426 7.83042 21.2193C7.65973 20.9961 7.58249 20.7152 7.61502 20.436C7.64754 20.1568 7.78729 19.9012 8.00475 19.7232C8.95936 18.9821 10.1056 18.5289 11.3089 18.4167C12.0306 18.4282 12.7282 18.6777 13.2936 19.1263C13.5513 19.3581 13.8831 19.4906 14.2296 19.5C15.1154 19.4337 15.9672 19.131 16.6963 18.6236C16.9288 18.4551 17.2187 18.3858 17.5023 18.4309C17.7859 18.4759 18.0399 18.6318 18.2087 18.8641V18.8641Z" fill="#0074E5"/>
</g>
<defs>
<clipPath id="clip0_1700_6149">
<rect width="26" height="26" fill="white"/>
</clipPath>
</defs>
</svg>
